<svg xmlns="http://www.w3.org/2000/svg" xmlns:xlink="http://www.w3.org/1999/xlink" width="1920" height="1090" viewBox="0 0 1920 1090"><defs><style>.cls-1{fill:#003f08;}.cls-1,.cls-13,.cls-15,.cls-17,.cls-19,.cls-2,.cls-20,.cls-21,.cls-22,.cls-23,.cls-26,.cls-27,.cls-30,.cls-31,.cls-32,.cls-34,.cls-35,.cls-36,.cls-37,.cls-40,.cls-42,.cls-43,.cls-45,.cls-46,.cls-47,.cls-48,.cls-55,.cls-6,.cls-7,.cls-8,.cls-9{stroke:#000;}.cls-1,.cls-13,.cls-15,.cls-17,.cls-19,.cls-2,.cls-20,.cls-21,.cls-22,.cls-23,.cls-26,.cls-27,.cls-30,.cls-31,.cls-32,.cls-34,.cls-35,.cls-36,.cls-37,.cls-40,.cls-42,.cls-43,.cls-45,.cls-46,.cls-47,.cls-48,.cls-55,.cls-56,.cls-6,.cls-7,.cls-8,.cls-9{stroke-miterlimit:10;}.cls-1,.cls-15,.cls-2,.cls-27,.cls-37,.cls-42,.cls-56,.cls-6{stroke-width:2px;}.cls-2{fill:url(#linear-gradient);}.cls-26,.cls-3{fill:#29d400;}.cls-4{fill:#299d00;}.cls-17,.cls-21,.cls-37,.cls-5,.cls-55{fill:#fff;}.cls-6{fill:#fff5e9;}.cls-7{fill:#d4f4ff;}.cls-7,.cls-8,.cls-9{stroke-width:5px;}.cls-8{fill:#b2a899;}.cls-10{fill:#ff2000;}.cls-11{fill:#f1e9ac;}.cls-12{fill:#bfffc2;}.cls-13,.cls-15,.cls-19,.cls-20,.cls-22,.cls-27,.cls-30,.cls-31,.cls-35,.cls-40,.cls-46,.cls-48,.cls-56{fill:none;}.cls-13,.cls-27,.cls-30,.cls-31,.cls-34,.cls-35,.cls-40,.cls-46,.cls-55,.cls-56{stroke-linecap:round;}.cls-13,.cls-43{stroke-width:0.75px;}.cls-14{fill:#10005f;}.cls-16{fill:#944b00;}.cls-17,.cls-34,.cls-35,.cls-48{stroke-width:0.5px;}.cls-18{fill:#a65900;}.cls-19{opacity:0.56;}.cls-20{opacity:0.42;}.cls-23{fill:#f1e97c;}.cls-23,.cls-47{stroke-width:0.25px;}.cls-24{fill:#bfbfbf;}.cls-25{fill:#9f1600;}.cls-28{fill:#ff931e;}.cls-29{fill:#5199ff;}.cls-30{stroke-width:3px;}.cls-33{fill:#6a2600;}.cls-34{fill:#ff7480;}.cls-36{fill:#333;}.cls-38{fill:#cfcdcc;}.cls-39{fill:#0a003f;}.cls-40{stroke-width:6px;}.cls-41{fill:red;}.cls-42{fill:#4100e9;}.cls-43,.cls-44{fill:gray;}.cls-45{fill:#999;}.cls-46{stroke-width:4px;}.cls-47{fill:#ccc;}.cls-49{fill:#299e00;}.cls-50{fill:#00bf00;}.cls-51{fill:#0b3500;}.cls-52{fill:#c90000;}.cls-53{fill:#ffe9e9;}.cls-54{fill:#940000;}.cls-56{stroke:#690000;}</style><linearGradient id="linear-gradient" x1="960" y1="963.55" x2="960" y2="-954.67" gradientUnits="userSpaceOnUse"><stop offset="0" stop-color="#d4f4ff"/><stop offset="1" stop-color="#10005f"/></linearGradient></defs><title>startskaerm</title><g id="Layer_9" data-name="Layer 9"><rect class="cls-1" y="1.25" width="1920" height="1087.5"/></g><g id="Layer_15" data-name="Layer 15"><rect class="cls-2" y="1.25" width="1920" height="1087.5"/></g><g id="Layer_14" data-name="Layer 14"><ellipse class="cls-3" cx="1545.72" cy="1124.32" rx="698.55" ry="315.99" transform="matrix(0.97, -0.25, 0.25, 0.97, -229.61, 416.12)"/><path class="cls-4" d="M1216.47,1343.46c-41.19,169.59-378.5,233.25-753.4,142.19s-645.42-302.35-604.24-471.93,378.5-233.25,753.4-142.19S1257.66,1173.88,1216.47,1343.46Z"/></g><g id="Layer_16" data-name="Layer 16"><circle class="cls-5" cx="526.06" cy="185.54" r="70.15"/><circle class="cls-5" cx="802.03" cy="599.29" r="104.17"/><circle class="cls-5" cx="801.88" cy="599.21" r="104.17"/><circle class="cls-5" cx="802.18" cy="599.23" r="104.17"/><circle class="cls-5" cx="802.18" cy="599.23" r="104.17"/><circle class="cls-5" cx="802.35" cy="600.08" r="104.17"/><circle class="cls-5" cx="477.04" cy="273.82" r="65.91"/><circle class="cls-5" cx="439.07" cy="205.42" r="62.66"/><ellipse class="cls-5" cx="401.03" cy="268.08" rx="70.09" ry="65.61"/><circle class="cls-5" cx="346.87" cy="202.47" r="54.16"/><circle class="cls-5" cx="1692.47" cy="184.15" r="45.32"/><circle class="cls-5" cx="1744.13" cy="213.21" r="55.78"/><circle class="cls-5" cx="1685.62" cy="241.22" r="58.5"/><circle class="cls-5" cx="1623.36" cy="178.51" r="44.75"/><circle class="cls-5" cx="1596.08" cy="246.68" r="48.43"/><circle class="cls-5" cx="657.47" cy="680.15" r="45.32"/><circle class="cls-5" cx="709.13" cy="709.21" r="55.78"/><circle class="cls-5" cx="650.62" cy="737.22" r="58.5"/><circle class="cls-5" cx="588.36" cy="674.51" r="44.75"/><circle class="cls-5" cx="561.08" cy="742.68" r="48.43"/><circle class="cls-5" cx="657.47" cy="680.15" r="45.32"/><circle class="cls-5" cx="709.13" cy="709.21" r="55.78"/><circle class="cls-5" cx="650.62" cy="737.22" r="58.5"/><circle class="cls-5" cx="588.36" cy="674.51" r="44.75"/><circle class="cls-5" cx="561.08" cy="742.68" r="48.43"/></g><g id="Layer_2" data-name="Layer 2"><rect class="cls-6" x="451.53" y="101.14" width="1079.62" height="609.86"/><rect class="cls-6" x="678.94" y="572.57" width="596.25" height="138.43"/><rect class="cls-6" x="451.53" y="713.34" width="1079.62" height="373.07"/><rect class="cls-6" x="508.62" y="26.86" width="948.65" height="74.28"/><path d="M906.28,617q0,9-.44,18.09t-1.08,18.1c-.07,1.09-.14,2.56-.21,4.4s-.22,3.84-.44,6-.5,4.29-.86,6.47a25.62,25.62,0,0,1-1.68,5.92,12.69,12.69,0,0,1-2.92,4.35,6.11,6.11,0,0,1-4.37,1.68,8.32,8.32,0,0,1-4.06-1,9.31,9.31,0,0,1-3-2.56,12,12,0,0,1-1.84-3.58,13.65,13.65,0,0,1-.65-4.19q0-3.59.22-7.23t.65-7.23l-10.7,1.09q-.33,2.83-.71,6.79a36.91,36.91,0,0,1-1.51,7.61A17.11,17.11,0,0,1,869.3,678a7.86,7.86,0,0,1-6.27,2.61,7,7,0,0,1-4.1-1.14,8.54,8.54,0,0,1-2.6-2.93,13.75,13.75,0,0,1-1.4-4,21.13,21.13,0,0,1-.44-4.13q0-6.52.54-13t.76-13q.21-6.84.16-13.75t.17-13.86c.07-1.52.12-3.29.16-5.32a24.16,24.16,0,0,1,.75-5.71,10.63,10.63,0,0,1,2.38-4.51,6.46,6.46,0,0,1,5-1.85q4.65,0,7,2.45a13.63,13.63,0,0,1,3.35,6.09,29.67,29.67,0,0,1,1,7.71V621q0,4.35-.22,8.53t-.43,8.42l11.57-1.73q.1-5.32.22-10.55t.43-10.43c.07-1.67.14-3.44.21-5.33a19.78,19.78,0,0,1,.87-5.21,8.6,8.6,0,0,1,2.54-4,7.88,7.88,0,0,1,5.35-1.58,7,7,0,0,1,4.92,1.74,13,13,0,0,1,3,4.24,20.14,20.14,0,0,1,1.56,5.33,33.8,33.8,0,0,1,.44,5.1Z"/><path d="M934,682.33a16.17,16.17,0,0,1-9.62-2.93,25.56,25.56,0,0,1-6.92-7.5,36.17,36.17,0,0,1-4.22-10.17,45.44,45.44,0,0,1-1.4-11,53.65,53.65,0,0,1,1.4-11.9,40.21,40.21,0,0,1,4.33-11.2,25.69,25.69,0,0,1,7.46-8.26,18.31,18.31,0,0,1,10.81-3.2,16.31,16.31,0,0,1,10.32,3.31,25.08,25.08,0,0,1,6.87,8.26,38,38,0,0,1,3.67,10.82,45.41,45.41,0,0,1,.76,11.08,63.14,63.14,0,0,1-1.78,11.63,38.56,38.56,0,0,1-4.27,10.55,24.22,24.22,0,0,1-7.14,7.61A17.89,17.89,0,0,1,934,682.33ZM935,633.2a3.52,3.52,0,0,0-2.86,1.74,15.36,15.36,0,0,0-2.06,4.24,34.38,34.38,0,0,0-1.24,5.27,31.69,31.69,0,0,0-.43,4.84,36.41,36.41,0,0,0,.48,5.65,34.53,34.53,0,0,0,1.36,5.6,15.39,15.39,0,0,0,2.1,4.24,3.56,3.56,0,0,0,2.87,1.68,3.65,3.65,0,0,0,3-1.63,12.82,12.82,0,0,0,2-4.13,30,30,0,0,0,1.08-5.49,51.17,51.17,0,0,0,.33-5.6,35.6,35.6,0,0,0-.44-5.27A32.87,32.87,0,0,0,940,639a14.09,14.09,0,0,0-2.05-4.13A3.6,3.6,0,0,0,935,633.2Z"/><path d="M994.6,619.4a5.36,5.36,0,0,1-2.11,4.67,36.88,36.88,0,0,1-4.7,2.88,24.06,24.06,0,0,0-4.7,3.21A7,7,0,0,0,981,635.7a6,6,0,0,0,.92,3.37,11.63,11.63,0,0,0,2.27,2.56c.9.76,1.89,1.54,3,2.33a19.61,19.61,0,0,1,3,2.72,13.38,13.38,0,0,1,2.27,3.7,13.71,13.71,0,0,1,.92,5.32,19,19,0,0,1-2.32,9,29.84,29.84,0,0,1-6,7.82,29.27,29.27,0,0,1-8.16,5.49,21.52,21.52,0,0,1-9,2.07,25.31,25.31,0,0,1-3.68-.27,10.64,10.64,0,0,1-3.3-1,6.77,6.77,0,0,1-2.43-2.12,5.9,5.9,0,0,1-1-3.53,8.15,8.15,0,0,1,1.19-4.73,8.6,8.6,0,0,1,3-2.66,18.06,18.06,0,0,1,3.95-1.52,25.46,25.46,0,0,0,4-1.36,8.86,8.86,0,0,0,3-2.12,5.25,5.25,0,0,0,1.19-3.69,8.05,8.05,0,0,0-1.78-4.73q-1.78-2.44-3.95-5.22a48.69,48.69,0,0,1-3.94-5.92,13.87,13.87,0,0,1-1.79-7,19.73,19.73,0,0,1,1.9-8.64,22.14,22.14,0,0,1,5.08-6.9,24,24,0,0,1,7.29-4.62,22.64,22.64,0,0,1,8.65-1.69,17.68,17.68,0,0,1,3.41.33,8.75,8.75,0,0,1,3,1.14,6.39,6.39,0,0,1,2.11,2.18A6.56,6.56,0,0,1,994.6,619.4Z"/><path d="M1048.44,646.79a60.08,60.08,0,0,1-1,10.49,39.53,39.53,0,0,1-3.46,10.59,24.65,24.65,0,0,1-6.38,8.16,15,15,0,0,1-9.89,3.26,24.65,24.65,0,0,1-3.14-.22,14.16,14.16,0,0,1-3.08-.76,9.94,9.94,0,0,1-2.65-1.47,6,6,0,0,1-1.83-2.44l-1,15.65c-.07,1.66-.12,3.66-.16,6a28.67,28.67,0,0,1-.86,6.64,13.35,13.35,0,0,1-2.71,5.38,6.77,6.77,0,0,1-5.46,2.22,4,4,0,0,1-3.45-2.12,17.06,17.06,0,0,1-2.22-5.38,53.11,53.11,0,0,1-1.24-7.28q-.43-4-.54-7.71c-.08-2.47-.11-4.72-.11-6.74v-4.46q0-7.27-.11-14.51T999,647.55v-4.08c0-1.84.07-3.86.22-6s.38-4.42.7-6.74a34.75,34.75,0,0,1,1.46-6.36,14.39,14.39,0,0,1,2.49-4.67,4.64,4.64,0,0,1,3.67-1.79,4.25,4.25,0,0,1,2.54.81,7.72,7.72,0,0,1,1.95,2.07,14.14,14.14,0,0,1,1.35,2.66,25.47,25.47,0,0,1,.86,2.61,22.3,22.3,0,0,1,17.08-7.72,12.28,12.28,0,0,1,8.49,2.94,20.47,20.47,0,0,1,5.19,7.28,37.59,37.59,0,0,1,2.65,9.29A60.49,60.49,0,0,1,1048.44,646.79Zm-15.46-.87a22.28,22.28,0,0,0-.27-3.32,11.45,11.45,0,0,0-1-3.15,6.12,6.12,0,0,0-2-2.39,5.46,5.46,0,0,0-3.24-.92,10.84,10.84,0,0,0-5.46,1.68,12.55,12.55,0,0,0-4.27,3.86,6.21,6.21,0,0,0-.65,2.83c-.07,1.3-.11,2.28-.11,2.93s0,1.18.06,2,.09,1.69.16,2.56.16,1.7.27,2.5a6,6,0,0,0,.49,1.84,3.76,3.76,0,0,0,1.4,1.8,15.59,15.59,0,0,0,2.38,1.46,12.32,12.32,0,0,0,2.65,1,10,10,0,0,0,2.32.33,4.5,4.5,0,0,0,3.68-1.74,13.7,13.7,0,0,0,2.22-4.13,22.75,22.75,0,0,0,1.08-4.95C1032.88,648.4,1033,647,1033,645.92Z"/><path d="M1073.73,640.27v3.2c0,1.13,0,2.2-.11,3.21-.07,1.23-.1,2.88-.1,5s-.08,4.29-.22,6.68-.38,4.82-.7,7.28a33.33,33.33,0,0,1-1.57,6.74,14,14,0,0,1-2.87,4.95,6.31,6.31,0,0,1-4.48,2,4,4,0,0,1-3.46-1.63,14.45,14.45,0,0,1-2.33-4.51,33.23,33.23,0,0,1-1.35-6.2c-.29-2.28-.5-4.49-.65-6.63s-.21-4.11-.21-5.92v-9q0-3.21.21-6.9t.82-7.5a37.89,37.89,0,0,1,1.72-7,14.61,14.61,0,0,1,3-5.11,6.1,6.1,0,0,1,4.65-2,4.79,4.79,0,0,1,4.43,2.93,25.63,25.63,0,0,1,2.27,6.85,48.24,48.24,0,0,1,.86,7.77C1073.69,637.13,1073.73,639,1073.73,640.27Zm-.86-37a4.73,4.73,0,0,1-.81,2.72,8.49,8.49,0,0,1-2.11,2.12,10,10,0,0,1-2.81,1.41,9.09,9.09,0,0,1-2.81.49,6.59,6.59,0,0,1-3.79-1.09,3.75,3.75,0,0,1-1.62-3.36,5.22,5.22,0,0,1,.81-2.89,7.28,7.28,0,0,1,2-2.06,9.3,9.3,0,0,1,2.7-1.25,10.59,10.59,0,0,1,2.92-.43,7.61,7.61,0,0,1,3.79,1A3.57,3.57,0,0,1,1072.87,603.31Z"/><path d="M1106.6,683.09q-7.68,0-11.95-2a13.89,13.89,0,0,1-6.38-5.71,21.43,21.43,0,0,1-2.54-8.91q-.43-5.22-.43-11.63c0-3.4.11-6.83.32-10.27s.54-7.12,1-11c-1,0-1.81,0-2.38.05s-1,.06-1.41.06a11.48,11.48,0,0,1-6-1.52,5.1,5.1,0,0,1-2.54-4.68,4.92,4.92,0,0,1,1.46-3.48,13,13,0,0,1,3.73-2.61,25.25,25.25,0,0,1,4.92-1.73,32.8,32.8,0,0,1,5-.87,57.93,57.93,0,0,1,.43-6.74,31.49,31.49,0,0,1,1.57-6.9,15.75,15.75,0,0,1,3.08-5.38,6.37,6.37,0,0,1,5-2.18,5,5,0,0,1,3.08,1,8.29,8.29,0,0,1,2.22,2.61,13.5,13.5,0,0,1,1.3,3.54,18.08,18.08,0,0,1,.43,3.8,31.26,31.26,0,0,1-.33,4.46,52,52,0,0,1-1.19,5.65q1.85-.23,2.49-.27c.43,0,.83-.06,1.19-.06a23.72,23.72,0,0,1,3.84.33,14.12,14.12,0,0,1,3.67,1.09,7.7,7.7,0,0,1,2.76,2,4.41,4.41,0,0,1,1.08,3,4.7,4.7,0,0,1-1.57,3.48,13.65,13.65,0,0,1-3.94,2.61,25.25,25.25,0,0,1-5.08,1.69,41.85,41.85,0,0,1-5.08.81c-.44,3-.74,5.71-.92,8.21s-.38,5-.6,7.55c-.14,1.23-.27,2.48-.38,3.75s-.16,2.56-.16,3.86c0,.94,0,2.05.11,3.31a12.12,12.12,0,0,0,.76,3.65,7.3,7.3,0,0,0,2,3,5.62,5.62,0,0,0,3.89,1.25,19.12,19.12,0,0,0,3.14-.27,19.68,19.68,0,0,1,3.24-.27,4.43,4.43,0,0,1,4,2,9.15,9.15,0,0,1,1.25,5,6.13,6.13,0,0,1-1.35,4A10.17,10.17,0,0,1,1116,681a19.37,19.37,0,0,1-4.59,1.58A23.24,23.24,0,0,1,1106.6,683.09Z"/><path d="M1168.86,663.85c0,1.31,0,3-.16,5.11a31.27,31.27,0,0,1-.92,6.14,14.38,14.38,0,0,1-2.37,5.17,5.38,5.38,0,0,1-4.54,2.17,7.56,7.56,0,0,1-6.17-2.61,9.46,9.46,0,0,1-2-6.52,26.7,26.7,0,0,1-7.84,4.78,24,24,0,0,1-8.92,1.74,12.32,12.32,0,0,1-5.94-1.52,18.85,18.85,0,0,1-5-3.91,19.88,19.88,0,0,1-3.46-5.38,14.9,14.9,0,0,1-1.29-5.93,14,14,0,0,1,3.19-9.13,29.3,29.3,0,0,1,7.83-6.68,45.33,45.33,0,0,1,9.9-4.4,56.66,56.66,0,0,1,9.35-2.18,7.36,7.36,0,0,1,0-1,7.12,7.12,0,0,0,0-1,7.9,7.9,0,0,0-1.83-5.44,6.62,6.62,0,0,0-5.19-2.06,10.86,10.86,0,0,0-4.65.92,31.15,31.15,0,0,0-3.68,2.06,38.06,38.06,0,0,1-3.46,2.07,8.07,8.07,0,0,1-3.89.92,5.79,5.79,0,0,1-4.05-1.52,5,5,0,0,1-1.68-3.91,10.94,10.94,0,0,1,2.11-6.52,18.73,18.73,0,0,1,5.3-4.95,28.41,28.41,0,0,1,6.92-3.15,23.56,23.56,0,0,1,6.86-1.14,24.81,24.81,0,0,1,5.84.71,21.16,21.16,0,0,1,5.51,2.17,21.6,21.6,0,0,1,4.71,3.59,17,17,0,0,1,3.4,4.94A47.61,47.61,0,0,1,1166,636a77.83,77.83,0,0,1,1.83,9.24c.44,3.15.72,6.31.87,9.46S1168.86,660.88,1168.86,663.85Zm-17.29-3.48-.33-7.39a1.63,1.63,0,0,1-.43-.05,1.58,1.58,0,0,0-.43,0,11.43,11.43,0,0,0-3.51.7,18.28,18.28,0,0,0-4.06,2,15.72,15.72,0,0,0-3.3,2.77,4.72,4.72,0,0,0-1.35,3.15,2.09,2.09,0,0,0,1.08,2.07,5.5,5.5,0,0,0,2.49.54,12.21,12.21,0,0,0,5.08-1.25Q1149.51,661.58,1151.57,660.37Z"/><path d="M1195.57,613.31q0,5.88-.49,11.79c-.32,4-.49,7.92-.49,11.91q0,7.71.49,15.43t.49,15.54c0,1.31-.08,2.77-.22,4.41a16.08,16.08,0,0,1-1,4.51,8.81,8.81,0,0,1-2.43,3.47,6.35,6.35,0,0,1-4.32,1.42,5.51,5.51,0,0,1-4.49-2.56,21.63,21.63,0,0,1-3.13-6.52,65.17,65.17,0,0,1-2.06-8.86q-.81-4.89-1.19-9.51c-.25-3.08-.43-5.9-.54-8.48s-.16-4.47-.16-5.7,0-3.37.16-6,.34-5.43.7-8.48.85-6.14,1.46-9.29a49.21,49.21,0,0,1,2.44-8.59,21.43,21.43,0,0,1,3.62-6.3,6.43,6.43,0,0,1,5-2.45,4.35,4.35,0,0,1,3.63,1.58,9.9,9.9,0,0,1,1.78,3.8,24.33,24.33,0,0,1,.65,4.68C1195.53,610.76,1195.57,612.15,1195.57,613.31Z"/></g><g id="Layer_3" data-name="Layer 3"><rect class="cls-7" x="526.82" y="157.5" width="99.06" height="388.27"/><rect class="cls-7" x="697.95" y="139.97" width="99.06" height="388.27"/><rect class="cls-7" x="867.02" y="139.97" width="99.06" height="388.27"/><rect class="cls-7" x="1018.15" y="139.97" width="99.06" height="388.27"/><rect class="cls-7" x="1187.33" y="139.97" width="99.06" height="388.27"/><rect class="cls-7" x="1356.4" y="139.97" width="99.06" height="388.27"/><rect class="cls-8" x="520.37" y="737.56" width="330.77" height="349.44"/><path class="cls-8" d="M685.76,912.28v0Z"/><line class="cls-8" x1="685.76" y1="899.62" x2="685.76" y2="1087"/><ellipse class="cls-9" cx="712.34" cy="912.28" rx="6.16" ry="22.51"/><ellipse class="cls-9" cx="660.42" cy="929.81" rx="6.16" ry="22.51"/><rect class="cls-8" x="1116.63" y="737.56" width="330.77" height="349.44"/><path class="cls-8" d="M1282,912.28v0Z"/><line class="cls-8" x1="1282.01" y1="899.62" x2="1282.01" y2="1087"/><ellipse class="cls-9" cx="1308.6" cy="912.28" rx="6.16" ry="22.51"/><ellipse class="cls-9" cx="1258.62" cy="912.28" rx="6.16" ry="22.51"/><rect class="cls-10" x="747.49" y="574.53" width="40.94" height="123.49"/><rect class="cls-10" x="747.38" y="574.87" width="41.16" height="122.82" transform="translate(1404.23 -131.68) rotate(90)"/></g><g id="Layer_5" data-name="Layer 5"><path class="cls-11" d="M1490.24,746.22a96.67,96.67,0,0,1-81.89,0,57.54,57.54,0,0,0,0-32.63h81.89a51,51,0,0,0,0,32.63Z"/></g><g id="Layer_19" data-name="Layer 19"><path class="cls-12" d="M1563.63,495.78c1.1-27.23,19.47-58.35,39.29-58.17,11.41.11,19.78,10.57,21.06,12.18,10.71,13.4,7.86,30.85,5.27,45.34-1,5.34-11.32,61-32.38,61.64-6,.19-12.31-4.16-17.78-11.18h.11c6.79,0,8.36-8.1,4.76-11.9.09-3.52-2.12-7.11-6.63-7.11a6.33,6.33,0,0,0-6.43,5.09A82.25,82.25,0,0,1,1563.63,495.78Z"/></g><g id="Layer_4" data-name="Layer 4"><path class="cls-12" d="M1559,652.84c-6.57,9.85-47.11,70.54-108.92,72.5a109.19,109.19,0,0,1-38.74-6.52c-44.13-15.72-65.45-54.48-80.52-81.89-9.35-17-27.59-51-30.87-99.56-5.27-77.76,29.81-163.64,67.35-167.56,7.4-.77,13.78,2,35.41.87,11.49-.58,18.84-1.81,41.44-5.21,27-4.07,40.56-6.1,41.45-6.08,30.33,1,67.8,20.78,71.68,45.15,1.55,9.79-2.47,19.27,4.31,26.91,4.88,5.5,11.05,5.2,15.55,6.95,21.15,8.24,23.73,69.09,12.95,125C1583.48,597.79,1578.49,623.7,1559,652.84Z"/><path class="cls-12" d="M1331.21,491.94c-1.1-27.23-19.48-58.35-39.29-58.17-11.42.1-19.78,10.57-21.07,12.18-10.71,13.4-7.86,30.84-5.27,45.34,1,5.34,11.32,61,32.38,61.64,6,.19,12.32-4.17,17.78-11.18h-.11c-6.78,0-8.36-8.09-4.76-11.89-.08-3.52,2.13-7.11,6.63-7.11a6.32,6.32,0,0,1,6.43,5.09A82.4,82.4,0,0,0,1331.21,491.94Z"/><path class="cls-13" d="M1305.08,551.59a18.37,18.37,0,0,0,7.31-8.59"/><path class="cls-13" d="M1595,560.88a18.13,18.13,0,0,1-7.13-8.18"/><path class="cls-14" d="M1596.76,983.33c-1.26-26.92-3.09-47-10.79-117.29-2.92-26.65-6.51-58.87-10.7-95.55-7.91-9.67-15.64-14.6-21-17.26-2.43-1.21-5.38-2.38-11.28-4.74-9.73-3.9-14.55-6-19-7-14.93-3.51-30.58-2.38-30.58-2.38-7.86,9.15-10,11.18-10,11.18-8.76,8.5-22.63,8.07-32.69,7.75,0,0-19-.6-35.77-12a18.84,18.84,0,0,1-7.37-9.53c-.22-3.22-1.08-6.4-3.46-8.17-4.5-3.35-13.25-.75-44.29,18.76-11.52,7.24-21.54,13.94-29.87,19.69-13.41,155.43-18.63,269-17.35,288q1.8,26.72,4.73,52.22l279.16-1.58c.9-17.77,1.46-36.25,1.58-55.39C1598.26,1026.85,1597.76,1004.57,1596.76,983.33Z"/><polygon class="cls-14" points="1459.32 989.71 1360.22 898.75 1456.16 793.08 1555.26 884.04 1459.32 989.71"/><path class="cls-14" d="M1654,1081.31c-7.79,3.64-13.63-3.51-33-.87-15.8,2.14-19.81,7.94-25.48,4.87-7.46-4-8.44-16.29-9.59-41.56-.93-20.51-4.62-40.8-6.52-61.25-3.36-36.08-5.81-58.69-4.91-83.18.4-10.87,1.34-18.65,1.58-20.61,2.52-20.45,5.76-23.27,6.31-33.3.93-17.15-8-19.25-15.78-47.57-4.92-17.9-7.44-39.22-3.38-40.64,1.71-.6,9.33,9.19,23.85,29.28s16.72,18.51,34,41.15c14.56,19.07,21.82,28.61,28.7,43A171.14,171.14,0,0,1,1664.86,923c2.4,19.88,1.24,41.28.22,60-.06,1.16-.2,6-.61,12.73-.23,3.58-.45,8.56-.56,16.56C1663.36,1051.74,1666.45,1075.48,1654,1081.31Z"/><path class="cls-14" d="M1268.75,1091.78c8,2.93,13.29-4.62,32.83-3.69,15.9.76,20.35,6.15,25.76,2.63,7.1-4.64,7.1-16.8,6.24-41.85h0c.76,0,.71-33.19,1.63-61,1.74-52.67,2.61-79,5.62-93.09,3.4-15.92,10-39.65-1.58-50.74-3.73-3.58-6.88-3.47-9.46-7.93-5.38-9.28,2.94-18.94,6.31-38.06,2.72-15.5,1.45-33-2.69-34-1.47-.34-3.31,1.29-21.42,31-12.79,21-15.18,19.7-30.59,43.53-13,20.07-19.46,30.11-25.16,44.92a169.34,169.34,0,0,0-10.91,52.94c-.81,19.83,2.05,40.86,4.55,59.24.15,1.14.68,6,1.62,12.52.51,3.51,1.12,8.41,1.87,16.29C1257.06,1063.4,1255.87,1087.1,1268.75,1091.78Z"/><path class="cls-11" d="M1593.47,1054.66c-3.7,3.66-1.39,10.35-7.12,12.38-2.38.84-3.21-.15-7.32.49a21.42,21.42,0,0,0-12.42,6.39,14.21,14.21,0,0,0-3.57,10.55c1,4.23-.2,6.24-1.45,7.29-2.28,1.93-5.57,3.83-17.19,2.3-21.92-2.89-3.39,26.79,17,20.66a13.6,13.6,0,0,0,1.95-.17c3.82-.66,5.46-2.92,5.81-2.73.83.43-7.4,12.67-13.57,25.5-3.64,7.55-4.85,11.76-2,15.2a12.07,12.07,0,0,0,8.85,4.17c3.3,0,6-1.9,13.54-12.42,2.54-3.51,5.61-8,8.9-13.29a21.44,21.44,0,0,1,.2,7.52c-.81,5.27-3.34,7.82-5.57,12.67a35.87,35.87,0,0,0-3.13,12.51c.19,5.5,4.65,10.16,9.94,11.22a13.35,13.35,0,0,0,12-4c1.82-2,1.34-3.15,3.13-8.14,1.55-4.34,2-3.83,4-8.6a134.08,134.08,0,0,0,4.24-14.16h0c.83,3.07,1.57,6.33,2.19,9.77a111.65,111.65,0,0,1,1.73,16.53c-.67,6.65,6.14,12.12,12.16,12.27s12-5.06,10.22-11.79a42.13,42.13,0,0,1,0-17.45,41.24,41.24,0,0,1,2-6.48l10.16,14.38c4.76,4.08,10.91,5.91,14.39,4.58,4.41-1.68,6.24-9.08-.18-16.24a24.85,24.85,0,0,0-4.86-8.4c-.64-.75-.74-.8-1.32-1.5-.28-.33-4.22-5.17-4.63-9.6-.32-3.43,1.6-5.17,3.12-8.14,3.44-6.73,1.61-13.59.27-18.66-2.63-9.91-9.26-17-13-20.53,3.92-5.87,3-10,2.24-12C1638.68,1052.72,1601.53,1046.68,1593.47,1054.66Z"/><path class="cls-11" d="M621.67,667.19c3.72,2.83,1.51,8.71,7.23,10,2.36.53,3.17-.38,7.26-.14,7.68.44,11.91,4.05,12.41,4.49a10.41,10.41,0,0,1,3.68,8.71c-.9,3.67.27,5.3,1.53,6.1,2.29,1.47,5.58,2.83,17.09.65,21.72-4.13,3.7,22.55-16.62,18.88a13.61,13.61,0,0,1-1.93,0c-3.79-.27-5.45-2.07-5.81-1.88-.81.43,7.52,10.22,13.81,20.68,3.7,6.15,4.95,9.64,2.21,12.79a13.75,13.75,0,0,1-8.73,4.21c-3.28.23-5.95-1.15-13.6-9.53-2.56-2.8-5.67-6.37-9-10.64a15.87,15.87,0,0,0-.1,6.42c.87,4.42,3.41,6.4,5.69,10.36a25.84,25.84,0,0,1,3.27,10.41c-.13,4.7-4.49,9-9.73,10.31a14,14,0,0,1-11.93-2.48c-1.82-1.53-1.36-2.58-3.2-6.69-1.6-3.58-2.09-3.1-4.09-7a94.89,94.89,0,0,1-4.39-11.74h0a87,87,0,0,0-2.05,8.48,85,85,0,0,0-1.51,14.21c.75,5.6-5.93,10.78-11.9,11.37s-12-3.4-10.3-9.26A30.78,30.78,0,0,0,580.7,751a29.48,29.48,0,0,0-2.08-5.36l-9.89,13c-4.68,3.83-10.75,5.86-14.22,5-4.4-1.09-6.31-7.26,0-13.84a22.48,22.48,0,0,1,4.7-7.52c.63-.69.73-.73,1.3-1.37.27-.31,4.12-4.73,4.47-8.53.28-2.95-1.66-4.28-3.2-6.69-3.5-5.47-1.78-11.45-.51-15.87,2.49-8.64,9-15.2,12.66-18.47-4-4.7-3.16-8.27-2.39-10.08C576.78,669,613.57,661,621.67,667.19Z"/><path class="cls-15" d="M1332,900.77c1.28,11.14-23.75,62.81,2.17,96.82"/><path class="cls-15" d="M1581.29,898c-.79,11.18,26.47,61.71,2,96.82"/><path class="cls-16" d="M1597.85,442.27s1.05-50.61-13.2-53.21S1614.44,406,1614.44,406s-23.31-75.53-99.74-75.53c0,0,29.8-23.45,49.87-14.33s-117.22-49.49-141.83,9.12c0,0,6.74-28.06,20.72-26.4s-31.08-17.88-49.22,10.77c0,0-48.24-10.42-63,13,0,0,35.78,2.61,35.78,11.72s-25.65-24.74-69.82,46.88c0,0,40-27.64,42.62-13.17s-35-7.66-50.51,50.94c0,0,22-14.32,25.9-9.12s-24.61,13.9-23.31,23.88,3.88-12.16,27.2,17.8a150.89,150.89,0,0,1,15.82-42.25c8.22-14.72,14.32-25.65,26.4-32.92,13.84-8.32,24.69-5.31,56.57-6.06a478.67,478.67,0,0,0,53.47-4.29c40.82,1.4,56.93,12.9,63.91,23.73,21.23,33,23.45,42.25,23.45,42.25.39,1.6,2.16,8.48,6.17,9.8,4.49,1.49,9.38-3.29,9.38-3.29l3.88,24.75,14.25-10.42Z"/><path class="cls-17" d="M1430.69,510.07c.64,5.93-7.41,11.26-12.38,14.47-7.63,4.93-21.18,13.68-40.29,11.86-15.89-1.51-25.69-9.38-31.66-14.18-3-2.42-6-5.29-6.07-9-.1-4.27,3.57-7.67,7.79-10.94,14.21-11,22.42-17.42,36-17.95s23.7,5.2,28.79,8.11a52.89,52.89,0,0,1,12.37,9.84C1428.69,505.8,1430.43,507.62,1430.69,510.07Z"/><path class="cls-18" d="M1416.62,522.83c-1.1,3-4,4.57-9.85,7.74a47.64,47.64,0,0,1-21.7,5.54,52.71,52.71,0,0,1-12.52-1.09,63.71,63.71,0,0,1-10.9-3.58,16,16,0,0,1-3.78-1.84,16.2,16.2,0,0,1-5.15-6.77c-2.73-7.05,11.22-32.14,32-32.12C1404.25,490.72,1420.22,513.09,1416.62,522.83Z"/><ellipse cx="1389.24" cy="518.19" rx="17.85" ry="17.94"/><ellipse class="cls-5" cx="1398.36" cy="521.71" rx="4.95" ry="4.97"/><path class="cls-17" d="M1515.53,539.36c15.89-1.51,25.68-9.38,31.66-14.18,3-2.42,6-5.29,6.06-9,.11-4.28-3.57-7.67-7.79-10.95-14.21-11-22.41-17.41-36-17.94s-23.7,5.2-28.78,8.1a53.51,53.51,0,0,0-12.38,9.84c-3.47,3.55-5.21,5.37-5.47,7.82-.63,5.93,7.42,11.26,12.38,14.47,7.63,4.93,21.18,13.68,40.3,11.86"/><path class="cls-18" d="M1521,538a64,64,0,0,0,10.9-3.58,13.81,13.81,0,0,0,8.92-8.61c2.74-7-11.21-32.14-32-32.12-19.57,0-35.54,22.38-31.95,32.12,1.1,3,4,4.57,9.86,7.74a47.61,47.61,0,0,0,21.7,5.54"/><path d="M1504.3,539.1a17.95,17.95,0,1,0-17.84-18,17.9,17.9,0,0,0,17.84,18"/><ellipse class="cls-5" cx="1495.18" cy="524.67" rx="4.95" ry="4.97"/><path d="M1553.79,492.54s-56.13-10.42-67.35-24.31-4.83,15.62-4.83,15.62l72.18,14.92Z"/><path d="M1344.29,492.54s56.13-10.42,67.36-24.31,4.82,15.62,4.82,15.62l-72.18,14.92Z"/><path class="cls-19" d="M1401.41,572.68s58.76-35,100.94,4.34"/><path class="cls-19" d="M1418.29,572.32c9.22-5.24,20.14-8.14,30.75-6.92"/><path class="cls-20" d="M1393.38,407.72c57-5.73,97.8-8.41,98.44-4.34.78,5-58.86,17.41-57.85,23.44.4,2.43,10.44,2.94,23.31,2.61"/><path class="cls-21" d="M1347.48,405.21a181.39,181.39,0,0,1,10.24,32.48c3,14.23,7.53,35.35-.57,40.3-2.39,1.46-5.83,1.13-8.87.11C1317.15,467.61,1347.48,405.21,1347.48,405.21Z"/><path class="cls-22" d="M1340.29,447.66c7.32-7-6.23,29.52,4,15.63"/><path class="cls-22" d="M1278.61,473.2s6.91-50.36,24.18,6.07"/><path class="cls-22" d="M1609.6,489.65s-6.9-50.35-24.17,6.08"/><path class="cls-23" d="M1463.61,634.32a6.27,6.27,0,0,0,.18,4.55c3.34,7.48,24.77,3,25.41,6,.44,2.07-9.16,8-20.29,7.82-11.39-.14-25.48-6.55-26.27-14.78-1.17-12.17,27.09-24.81,36.2-20.43a23,23,0,0,1,3.73,2.41c6.42,6.73,7.29,9.25,6.63,10.22-1.33,1.95-8.59-2.82-18.39-.42C1465,631.12,1463.84,633.72,1463.61,634.32Z"/><path class="cls-5" d="M1487.65,630.57a39.75,39.75,0,0,1-11.14-1.36l-.19-.08c-.48,0-1,0-1.45,0-.22,0-.42-.06-.63-.08-2,.39-3.89.85-5.81,1.32a7.68,7.68,0,0,1-1.26.7,6.72,6.72,0,0,1-.85.42,6.09,6.09,0,0,1-.71.51c-.07.06-.12.12-.19.17a6.87,6.87,0,0,1-.73.51h0c-.11.19-.22.36-.32.55l-.15.19a8.9,8.9,0,0,1-.65,1.4,7.76,7.76,0,0,1-.21,1.48s0,.09,0,.14a9.25,9.25,0,0,1,.12,1.18v.25a8.49,8.49,0,0,1,.86,1.86,8.37,8.37,0,0,1,.57.62,9.25,9.25,0,0,1,1.47,1l119.56,28.47,3.52-14.93Z"/><ellipse class="cls-5" cx="1599.25" cy="665.01" rx="17.92" ry="18.01"/><path class="cls-24" d="M1475.82,629.12c-.32,0-.63,0-1,0s-.42-.06-.63-.08c-2,.39-3.89.85-5.81,1.32a7.68,7.68,0,0,1-1.26.7,6.72,6.72,0,0,1-.85.42,6.09,6.09,0,0,1-.71.51c-.07.06-.12.12-.19.17a6.87,6.87,0,0,1-.73.51h0c-.11.19-.22.36-.32.55s-.11.13-.15.2a8.69,8.69,0,0,1-.65,1.38,8.15,8.15,0,0,1-.2,1.45c0,.07,0,.14,0,.21a7.48,7.48,0,0,1,.12,1.15v.26a8,8,0,0,1,.83,1.56l123.41,29.38,2.9-12.33Z"/><ellipse class="cls-24" cx="1598.92" cy="664.94" rx="14.58" ry="14.66"/><polygon class="cls-25" points="1590.61 656.45 1587.71 668.78 1500.83 648.1 1503.73 635.77 1590.61 656.45"/><ellipse class="cls-25" cx="1598.7" cy="664.89" rx="14.8" ry="14.88"/><path class="cls-26" d="M596.09,138.3A50.89,50.89,0,0,1,588.85,165a63.19,63.19,0,0,1-19.37,20.12,31,31,0,0,1,11.07,4.36,28.27,28.27,0,0,1,7.77,7.56A33.71,33.71,0,0,1,593,207.17,43,43,0,0,1,594.6,219,39.2,39.2,0,0,1,589,240.17a47.88,47.88,0,0,1-14.58,14.9,67.17,67.17,0,0,1-19.91,8.73,85.57,85.57,0,0,1-21.82,2.87,83.73,83.73,0,0,1-11.92-.85,49,49,0,0,1-11.29-3c-1.27-.42-2.34-2.16-3.19-5.21a72,72,0,0,1-2-11.18q-.75-6.6-1.17-14.26t-.64-14.69c-.15-4.69-.21-8.8-.21-12.35V182.69c0-5,.13-10,.42-15,0-1.28,0-3.26.11-6s.14-5.71.21-9.05.21-6.84.43-10.54.49-7.13.85-10.32a51,51,0,0,1,1.49-8.2q1-3.4,2.23-4.26a96.7,96.7,0,0,1,10.86-6.06,103.55,103.55,0,0,1,12.35-5,107.66,107.66,0,0,1,12.77-3.4,62.08,62.08,0,0,1,12.14-1.28,52,52,0,0,1,15.22,2.23,36.83,36.83,0,0,1,12.77,6.71,34,34,0,0,1,8.73,11A32.27,32.27,0,0,1,596.09,138.3Zm-35.34,11.28a6.27,6.27,0,0,0-2.24-5.32,9.43,9.43,0,0,0-5.85-1.7,17.22,17.22,0,0,0-6.28,1.28,18,18,0,0,0-5.64,3.4c-.43.43-.82,1.64-1.17,3.62s-.64,4.23-.85,6.71-.36,4.82-.43,7-.11,3.66-.11,4.37v1.38c0,.64,0,1.31.11,2a13.46,13.46,0,0,0,.32,1.92c.14.57.35.85.64.85a13.07,13.07,0,0,0,7.45-2.66,31.9,31.9,0,0,0,6.92-6.6,41.26,41.26,0,0,0,5.11-8.41A19.67,19.67,0,0,0,560.75,149.58Zm-.85,61.53c0-2.41-.85-4.12-2.56-5.11a11.22,11.22,0,0,0-5.74-1.49,16.23,16.23,0,0,0-6.28,1.38,19.13,19.13,0,0,0-5.43,3.3,3.29,3.29,0,0,0-1,2.13,28.8,28.8,0,0,0-.43,3.73c-.07,1.35-.14,2.63-.21,3.83s-.11,2-.11,2.45V223c0,.85,0,1.74.11,2.66a13,13,0,0,0,.43,2.56c.21.78.45,1.17.74,1.17a15.62,15.62,0,0,0,6.6-1.71,31.57,31.57,0,0,0,6.71-4.25,23.87,23.87,0,0,0,5.11-5.86A12.44,12.44,0,0,0,559.9,211.11Z"/><path class="cls-26" d="M905.42,149.58a27,27,0,0,1-3.09,12.14A89.26,89.26,0,0,1,894.88,174q-4.36,6.06-9.15,11.5t-8.41,9.9q3,4.68,7.45,12.45t8.52,16.5a182.36,182.36,0,0,1,6.91,17q2.88,8.29,2.88,13.84a13.45,13.45,0,0,1-2.77,8.19,9,9,0,0,1-7.66,3.73A11.58,11.58,0,0,1,885.3,264a46.11,46.11,0,0,1-7.45-8.09,98.12,98.12,0,0,1-7.13-11.17q-3.4-6.18-6.28-12.14t-5.11-11.18c-1.49-3.47-2.66-6.28-3.51-8.4A29.15,29.15,0,0,1,850,217.6a54.92,54.92,0,0,0-6.07,4.15q0,4.47-.31,12.56a101.39,101.39,0,0,1-1.92,16A41.56,41.56,0,0,1,836.44,264a11.75,11.75,0,0,1-10.64,5.86,9.4,9.4,0,0,1-8.52-5,37.3,37.3,0,0,1-4.36-11.7,78.65,78.65,0,0,1-1.6-13.63q-.21-6.92-.21-10.54,0-15.75.85-31.51T813,166c0-2.42,0-5.57.1-9.48s.32-8.12.75-12.66,1.06-9.16,1.91-13.84a61.77,61.77,0,0,1,3.62-12.67,26,26,0,0,1,6.07-9.15,12.67,12.67,0,0,1,9-3.52,8.52,8.52,0,0,1,6.49,2.88,21.17,21.17,0,0,1,4.26,7.34,49.88,49.88,0,0,1,2.34,10q.75,5.54,1.06,11c.22,3.62.32,7,.32,10.11v7.46c0,1.27,0,3.16-.1,5.64s-.15,5.07-.22,7.77-.1,5.18-.1,7.45a20.14,20.14,0,0,0,.42,4.9q1.5,0,4.47-2.88t6.92-7.34q3.95-4.47,8.52-9.48t9.37-9.47a59.64,59.64,0,0,1,9.47-7.34,16.86,16.86,0,0,1,8.73-2.88,7.94,7.94,0,0,1,6.6,3A10.74,10.74,0,0,1,905.42,149.58Z"/><path class="cls-26" d="M975.25,147q0,6.18-4.15,9.15a77.33,77.33,0,0,1-9.26,5.65,46.39,46.39,0,0,0-9.26,6.28q-4.16,3.62-4.16,10.85a11.82,11.82,0,0,0,1.81,6.6,23,23,0,0,0,4.47,5q2.67,2.24,5.86,4.57a38.31,38.31,0,0,1,5.85,5.32,26,26,0,0,1,4.47,7.24,26.63,26.63,0,0,1,1.81,10.43,37.08,37.08,0,0,1-4.57,17.57,58.95,58.95,0,0,1-27.79,26.08,42.71,42.71,0,0,1-17.67,4,50.25,50.25,0,0,1-7.23-.53,20.71,20.71,0,0,1-6.5-2,13.55,13.55,0,0,1-4.79-4.15,11.63,11.63,0,0,1-1.91-6.92q0-6,2.34-9.26a16.86,16.86,0,0,1,6-5.22,35,35,0,0,1,7.77-3,50.28,50.28,0,0,0,7.77-2.66,17.7,17.7,0,0,0,6-4.15q2.34-2.56,2.34-7.24,0-4.47-3.51-9.26t-7.77-10.22a93.8,93.8,0,0,1-7.77-11.6A27.11,27.11,0,0,1,911.81,176a38.67,38.67,0,0,1,3.72-16.92,43.73,43.73,0,0,1,10-13.52,47.75,47.75,0,0,1,14.37-9,44.64,44.64,0,0,1,17-3.3,35,35,0,0,1,6.71.64,17.06,17.06,0,0,1,5.85,2.24,12.51,12.51,0,0,1,4.15,4.25A12.82,12.82,0,0,1,975.25,147Z"/><path class="cls-26" d="M1020.59,187.9v6.28q0,3.31-.21,6.28-.21,3.63-.21,9.69t-.43,13.09q-.42,7-1.38,14.27a64.37,64.37,0,0,1-3.09,13.2,27.29,27.29,0,0,1-5.64,9.68,12.32,12.32,0,0,1-8.84,3.94,7.9,7.9,0,0,1-6.81-3.19,27.87,27.87,0,0,1-4.57-8.84,63.7,63.7,0,0,1-2.67-12.13q-.86-6.71-1.27-13t-.43-11.6V198q0-6.28.43-13.52t1.59-14.69a73.59,73.59,0,0,1,3.41-13.63,28.49,28.49,0,0,1,5.85-10,12.05,12.05,0,0,1,9.16-3.83q5.74,0,8.73,5.74a50.24,50.24,0,0,1,4.47,13.42,93.56,93.56,0,0,1,1.7,15.22Q1020.59,184.29,1020.59,187.9Zm-1.7-72.38a9.17,9.17,0,0,1-1.6,5.32,16.23,16.23,0,0,1-4.15,4.16,20.45,20.45,0,0,1-5.53,2.76,18.14,18.14,0,0,1-5.54,1,13.11,13.11,0,0,1-7.45-2.13q-3.2-2.13-3.19-6.6a10.11,10.11,0,0,1,1.59-5.64,14.32,14.32,0,0,1,3.94-4,18.2,18.2,0,0,1,5.33-2.45A20.74,20.74,0,0,1,1008,107a14.89,14.89,0,0,1,7.45,1.91Q1018.89,110.84,1018.89,115.52Z"/><path class="cls-26" d="M1075.52,135.11q0,11.49-1,23.1t-1,23.31q0,15.12,1,30.23t1,30.44q0,3.84-.43,8.62a31.24,31.24,0,0,1-2,8.84,17.19,17.19,0,0,1-4.79,6.81,12.57,12.57,0,0,1-8.51,2.77q-5.12,0-8.84-5a43,43,0,0,1-6.17-12.78,127.37,127.37,0,0,1-4-17.35q-1.59-9.58-2.34-18.63t-1.06-16.6c-.22-5-.32-8.76-.32-11.18q0-4,.32-11.71t1.38-16.6q1.07-8.94,2.87-18.21a96.16,96.16,0,0,1,4.79-16.81,42.49,42.49,0,0,1,7.14-12.35,12.68,12.68,0,0,1,9.89-4.79,8.59,8.59,0,0,1,7.14,3.09,19.06,19.06,0,0,1,3.51,7.45,48,48,0,0,1,1.28,9.15C1075.45,130.1,1075.52,132.84,1075.52,135.11Z"/><path class="cls-26" d="M1131.51,135.11q0,11.49-1,23.1t-1,23.31q0,15.12,1,30.23t1,30.44q0,3.84-.43,8.62a31.24,31.24,0,0,1-2,8.84,17.19,17.19,0,0,1-4.79,6.81,12.57,12.57,0,0,1-8.51,2.77q-5.12,0-8.84-5a43,43,0,0,1-6.17-12.78,127.37,127.37,0,0,1-4-17.35q-1.59-9.58-2.34-18.63t-1.06-16.6c-.22-5-.32-8.76-.32-11.18q0-4,.32-11.71t1.38-16.6q1.07-8.94,2.87-18.21a96.16,96.16,0,0,1,4.79-16.81,42.49,42.49,0,0,1,7.14-12.35,12.68,12.68,0,0,1,9.9-4.79,8.57,8.57,0,0,1,7.13,3.09,19.06,19.06,0,0,1,3.51,7.45,48,48,0,0,1,1.28,9.15C1131.44,130.1,1131.51,132.84,1131.51,135.11Z"/><path class="cls-26" d="M1333.33,107.22a9.15,9.15,0,0,1-1.28,4.58A22,22,0,0,1,1329,116a32.08,32.08,0,0,1-3.94,3.51l-3.83,2.87c-1,.72-2.1,1.53-3.3,2.45a35.1,35.1,0,0,1-3.84,2.56,36.23,36.23,0,0,1-4,2,10.07,10.07,0,0,1-3.94.85,4.81,4.81,0,0,1-3-1,3.36,3.36,0,0,1-1.28-2.87q0-3.19,2.45-7.77a53.27,53.27,0,0,1,6.07-8.94,46.61,46.61,0,0,1,7.66-7.45q4.05-3.09,7.45-3.09a7.53,7.53,0,0,1,5.43,2.45A7.75,7.75,0,0,1,1333.33,107.22Z"/><path class="cls-26" d="M1408.69,147q0,6.18-4.15,9.15a76.54,76.54,0,0,1-9.26,5.65,47,47,0,0,0-9.26,6.28q-4.15,3.62-4.15,10.85a11.74,11.74,0,0,0,1.81,6.6,22.47,22.47,0,0,0,4.47,5c1.77,1.49,3.73,3,5.85,4.57a38.85,38.85,0,0,1,5.86,5.32,26.43,26.43,0,0,1,4.47,7.24,26.81,26.81,0,0,1,1.81,10.43,37.09,37.09,0,0,1-4.58,17.57,59,59,0,0,1-27.78,26.08,42.71,42.71,0,0,1-17.67,4,50.28,50.28,0,0,1-7.24-.53,20.65,20.65,0,0,1-6.49-2,13.46,13.46,0,0,1-4.79-4.15,11.56,11.56,0,0,1-1.92-6.92q0-6,2.34-9.26a17,17,0,0,1,6-5.22,35.31,35.31,0,0,1,7.78-3,51,51,0,0,0,7.77-2.66,17.8,17.8,0,0,0,6-4.15q2.34-2.56,2.34-7.24,0-4.47-3.51-9.26t-7.77-10.22a93.86,93.86,0,0,1-7.78-11.6,27.11,27.11,0,0,1-3.51-13.63,38.54,38.54,0,0,1,3.73-16.92,43.7,43.7,0,0,1,10-13.52,48,48,0,0,1,14.37-9,44.68,44.68,0,0,1,17-3.3,34.92,34.92,0,0,1,6.71.64,17.11,17.11,0,0,1,5.86,2.24,12.6,12.6,0,0,1,4.15,4.25A12.92,12.92,0,0,1,1408.69,147Z"/><path class="cls-27" d="M560.61,447.22c-34,2.69-52.87,37.08-59.54,65.22"/><path class="cls-28" d="M723.22,530.09c10.6,37.45,30.17,109.83,9.63,197.89-12.58,53.95-24.38,104.57-69.4,133.77-40.15,26-52.13-.39-188.92,18.32-41.22,5.64-76.48,13-111.81-5.5-20.79-10.88-33-26.19-40.49-36.64C189.8,654.33,208.49,530.09,208.49,530.09c15.4-102.35,91.85-247.8,217.84-260.2,109.66-10.79,195.47,79.47,214,98.95C693.07,424.32,710.08,483.72,723.22,530.09Z"/><path class="cls-11" d="M282.71,572.26C280.11,562,268,514.55,288.5,500.8c8.34-5.6,14.13-.26,25.06-5.5,20.81-10,14.07-35.55,34.7-75.12,11.27-21.62,25.6-35.36,32.77-42.15,13.11-12.41,30.87-29.21,50.12-33,42.67-8.35,85.11,49.69,138.81,115.44,6.19,7.58,9.48,11.83,11.93,15.14,14.13,19.06,39.74,53.6,47.83,96.63,2.34,12.48,8.47,44.12-3.86,75.13-23.2,58.39-101.14,94.67-169.64,89.79C345.58,729.29,294.5,618.63,282.71,572.26Z"/><path class="cls-11" d="M307.12,536.42c-3.47,21.79-17.61,57.84-37.83,57.8-18.22,0-33.32-30.1-35.73-52.9-2.61-24.67,8.29-53.65,25.06-58.87a53.1,53.1,0,0,1,11.56-1.84c8.8-.48,18.77,1,24.33,3.9C313.26,494.26,307.58,533.51,307.12,536.42Z"/><path class="cls-11" d="M496.5,870.65a40.36,40.36,0,0,1-18.34,7.66c-18.19,2.45-33-9.76-39.17-15.61l-10-88.39q-4-35.47-8-70.95L487,722.82c7.42,15.93,8.47,27.72,8,35.66-.33,5.48-1.31,7.66-4.37,22.86,0,0-2.94,14.58-4.78,26.25C484.16,818.09,484.08,837.25,496.5,870.65Z"/><path class="cls-17" d="M445.61,552.08c-1.37,6.69-35.35,11.87-69.4,1.83-17.32-5.11-49.88-14.71-52-33-2.41-20.34,33.08-49.06,67.47-44,0,0,33.84,5.61,50.13,49.47a34.37,34.37,0,0,1,1.92,7.33c.53,4.66-.58,6.39,0,11C444.31,549.67,445.93,550.51,445.61,552.08Z"/><path class="cls-17" d="M502.18,528.44c.7,4.73,33.4,9,69.7-1.1,15.29-4.27,30.51-8.53,32.78-18.32.64-2.8-4.71-11.07-15.43-27.49,0,0-12.6-19.31-23.13-29.32l-1.93-1.83c-1.79-1.71-1.88-1.79-1.93-1.83-1-.89-3.74-1.18-11.59,1.45h0s-33.36,7.8-46.46,52.6a33.94,33.94,0,0,0-1.4,7.44c-.13,3.05.35,4.82.48,8a30.27,30.27,0,0,1-.24,6.64C502.6,527.36,502.08,527.81,502.18,528.44Z"/><path class="cls-29" d="M507,507.21c2.26,15.66,19.14,25.93,35.05,24.71,15.6-1.2,30.34-13.45,30.34-28.95,0-16.81-17.31-30.1-34.93-29S504.54,490.51,507,507.21Z"/><ellipse cx="539.11" cy="501.69" rx="22.17" ry="21.07"/><ellipse class="cls-5" cx="572.51" cy="485.31" rx="5.78" ry="5.5"/><path class="cls-29" d="M413.8,525.51c-.73,15.86-15.74,28-31.8,28.4-16.73.45-33-11.8-33.74-28.4-.79-17.08,15.14-31.15,32.77-31.15S414.59,508.55,413.8,525.51Z"/><ellipse cx="379.1" cy="521.84" rx="22.17" ry="21.07"/><ellipse class="cls-5" cx="372.36" cy="513.6" rx="5.78" ry="5.5"/><ellipse class="cls-5" cx="526.58" cy="502.6" rx="5.78" ry="5.5"/><path class="cls-30" d="M407.68,639.26c-2.62-3.8-7.41-9.56-13.15-9.31-3.34.15-5.42,2.25-9.64,5.5a115.93,115.93,0,0,1-17.35,11"/><path class="cls-30" d="M515.57,643.25c8-1.17,17.64-3.33,22.7-9.91,6.27-8.17,1.68-18.74,3.68-27.89"/><path class="cls-31" d="M446.58,582.31s19.27-23.82,38.55-20.15S489,589.64,489,589.64s-5.79,9.16-21.21,7.33"/><path class="cls-32" d="M512.12,648.28c-2.29,14.19,1,18.89,0,29.31-.44,4.85-1.94,21.32-13.49,29.32-15.24,10.56-43.12,3.05-54-11-1-1.34-.07-.35-9.64-18.33-8.87-16.65-10.24-18.51-11.57-20.15C415,647.08,406.92,644.29,408,641c.93-2.84,7.4-2.87,15.42-3.67,17.31-1.73,18-4.68,34.7-7.33,4.82-.76,49.9-7.64,55.91,5.5C515.34,638.28,513.57,639.29,512.12,648.28Z"/><path class="cls-21" d="M512.89,636.37c-.31-1-1.3-3.28-6-5.5-14.27-6.74-39.8-2.57-44.12-1.83-12.09,2.06-11.46,3.09-26.07,5.49-13.74,2.26-17.54,1.88-18.05,3.67-1.46,5,26.1,17.71,51.14,21.07,7.1,1,12.76.64,24.07,0,11.48-.64,15.59-1.87,17.05-4.58,1.3-2.43-.84-3.67,0-9.16C511.63,640.59,513.73,639.2,512.89,636.37Z"/><path class="cls-28" d="M419.05,460c-1.74,1.59-12.4-14-31.7-16.67-23.65-3.31-42.47,15.21-43.45,13.82-1.15-1.62,22.51-30.47,48.06-24.55C410.92,437,421,458.24,419.05,460Z"/><path class="cls-28" d="M507.6,451.64c1.9,1.42,10.81-15.11,29.7-19.7,23.16-5.62,43.91,10.93,44.73,9.46,1-1.73-25.72-28.09-50.48-19.68C513.17,428,505.51,450.09,507.6,451.64Z"/><ellipse class="cls-33" cx="345.52" cy="577.92" rx="4.01" ry="3.81"/><ellipse class="cls-33" cx="366.37" cy="579.45" rx="4.01" ry="3.81"/><ellipse class="cls-33" cx="355.14" cy="597.74" rx="4.01" ry="3.81"/><ellipse class="cls-33" cx="594.44" cy="550.42" rx="3.83" ry="3.64"/><ellipse class="cls-33" cx="567.92" cy="554.34" rx="3.83" ry="3.64"/><ellipse class="cls-33" cx="587.13" cy="572.65" rx="3.83" ry="3.64"/><path class="cls-31" d="M295.81,512c-2.27-8.83-8.82-15.85-16.95-17.62-11.56-2.53-25.47,5.72-28.92,20.15"/><path class="cls-31" d="M263.44,545.66a53.78,53.78,0,0,1,1.92-31.15,55.55,55.55,0,0,1,12.37-19.24"/><path class="cls-13" d="M295.66,571.32s-13.19,23.82-23.67,22.9-24.9-4.56-36-40.3,6.24-74.22,35.16-74.22,33.3,16.62,33.3,16.62l7.18,16.36"/><path class="cls-31" d="M351.15,467.79s17.35-14.66,36.63-3.67"/><path class="cls-15" d="M474.55,679c-4.13-4.13-10.86-3.91-18.38-2.83A94.78,94.78,0,0,0,439,680.5a10.9,10.9,0,0,1-.15,1.28l38.58,10.47C477.82,690.19,478.88,683.28,474.55,679Z"/><path class="cls-34" d="M475.88,680.78a13.11,13.11,0,0,0,1.67.21c1.64,0,2.76-.36,5.28-.28,2.21.07,6.7.16,10.13,2.56,5.16,3.6,5.54,10.09,5.69,12.14s.53,7.8-3.35,11.61c-3.47,3.41-8.4,3.42-13.86,3.45a42.67,42.67,0,0,1-20.92-4.74c-9.68-5.12-20.26-15.73-17.63-21.3,1.5-3.16,6.95-4,13.85-5.1,3.57-.56,8.29-1.3,12.16-.13A55.57,55.57,0,0,0,475.88,680.78Z"/><path class="cls-35" d="M467.78,675.76s12.1,3,9.91,12.5"/><path class="cls-36" d="M512.12,388.08a153.53,153.53,0,0,0-142.66-1.83l10.13-11.91c1.32-1.81,24.67-32.42,65.06-30.24,38.16,2.06,57.65,31.56,59.28,34.12Z"/><path class="cls-5" d="M597,974.85A1189.77,1189.77,0,0,0,569,768a340.57,340.57,0,0,0-39.46-16c-14-4.69-22.09-7.35-33.61-8.75-1.53-.19-4.83-1.83-8.36-.61-5.95,2.06-8.17,9.84-9.18,13.09-1.24,4-11.6,37.38-23.38,39.45-11.37,2-26.86-24.6-26.31-39.45.07-2,.23-6.15.84-7.93-1.58-1.93-3.91-4.67-6.69-6-8.11-3.9-18.55,5.94-27.76,10.21-11.66,5.41-27.2,13.07-45.31,23.34a1052.2,1052.2,0,0,0-16.07,265.46q1.65,24.63,4.38,48.14l258.68-1.46q1.26-25,1.46-51.05.18-27.93-.93-54.91A6.16,6.16,0,0,1,597,974.85Z"/><rect class="cls-5" x="406.03" y="824.19" width="124.34" height="131.87" transform="translate(722.54 -82.94) rotate(42.39)"/><path class="cls-5" d="M495.46,741.49A6.1,6.1,0,0,1,490,744.3c-5.2,9.24-14.42,14.89-23.61,17.33-13.69,3.64-30.58.27-38.43-12-3.68-1-5.11-5.13-4.45-8.76q-15,17-30.51,36.05-14.76,18.18-27.93,35.79l94.59,106,96.19-106.07Q525.67,777.08,495.46,741.49Z"/><path class="cls-37" d="M522,850l33.85-37.33-60.43-71.17-3.2-.21a6.25,6.25,0,0,1-2.57,3,6.38,6.38,0,0,1-4.93,4.62c-1,.24-2,.45-3,.65a7.22,7.22,0,0,1-3.22,5.57c-12.69,8.87-31.21,11.22-43.38-.1a17.54,17.54,0,0,1-3.67-5.35,40.16,40.16,0,0,0-2.73-4.42,8.12,8.12,0,0,1-2.85-1.72,4.88,4.88,0,0,1-.48-.54l-.52-.45a7,7,0,0,1-1.89-3.4.93.93,0,0,1-.13-.15l-58.45,73.66,42.38,46.77L379.05,896l92.07,84.76,87.69-97.92Z"/><path class="cls-27" d="M601.19,969.42c-24.84-32.53-21.92-77.84-24.84-117.3"/><path class="cls-27" d="M340.26,860.14s-10,83-4.63,104.73"/><path class="cls-38" d="M748.8,744c7-10.27,2.84-24.56-14.61-67.22q-1.47-3.59-3.09-7.49c-6.34-15.32-6.34-14.57-7.31-17.45-4.55-13.4-1.51-19.81-5.68-21.83-3.34-1.62-6.14,2.09-13.15,2.92s-13.28-1.84-17.54-4.38c-2.17,8.21-5.49,19.84-10.23,33.61-6.69,19.41-9.81,29.18-13.15,36.54-8.65,19-15,25.65-11.7,33.61,1.85,4.47,5.74,7,13.16,11.69,7.74,4.95,14.62,7,20.46,8.77a103.3,103.3,0,0,0,24.84,4.39,38.54,38.54,0,0,0,21.92-1.46c1.15-.44,11-4.28,16.08-11.7"/><rect class="cls-39" x="685.96" y="627.06" width="35.07" height="7.31"/><path class="cls-17" d="M724,706c9.47,19.53,8.13,23.25,7.31,24.84-4.27,8.27-19.76,7.63-27.77,7.31-5.36-.22-27.35-1.12-30.69-11.69-.84-2.67-.38-5.59,10.23-21.93,11.48-17.67,17.32-26.51,21.93-26.3C710.62,678.46,715.06,687.63,724,706Z"/><path class="cls-40" d="M550,900.35c5.09-11.92,14.75-39.25,8.77-73.07-9.84-55.62-54.07-84.1-61.7-88.84"/><path class="cls-40" d="M421.53,737.12A107,107,0,0,0,391,765.87c-41,58.17-5.19,137.39-1.75,144.71"/><path class="cls-41" d="M471.5,980.61q-25.1-121.93-50.17-243.86c1.71,1.8,20.08,20.52,45.19,15.64,16.69-3.24,29.3-18.66,29.3-18.66S479.6,898.31,471.5,980.61Z"/><line class="cls-42" x1="471.12" y1="980.73" x2="471.12" y2="1088.88"/><circle class="cls-21" cx="493.04" cy="989.5" r="10.96"/><path class="cls-5" d="M707.15,759.32c-6.24-5.13-13,.21-30-6.58-13.78-5.52-16.15-11.82-21.92-10.23-7.59,2.1-11.09,13.27-17.54,36.54-13.2,47.61-15.17,55.18-19,55.53-10.24,1-18.39-51-49.69-67.22-3-1.55-6.23-2.8-8.77-1.46-7.91,4.15.49,28.75,3.66,63.57,3.64,40.16,8.56,40.91,9.8,56.5,1.82,22.84-.78,25.46,2.62,39.22,3.12,12.65,8.27,33.49,27.29,45a7.71,7.71,0,0,1,3.76.68,119.27,119.27,0,0,0,23,7.12,45.89,45.89,0,0,0,21.93-4.58c5.45-2.72,16.8-9.91,30.69-52.61,12.3-37.8,7.29-44.09,18.27-95C709.26,788.93,717.14,767.53,707.15,759.32Z"/><path class="cls-5" d="M378.68,960.57c9.83,27.66,20,49.78,20,49.78,19.16,38.74,36.18,54.14,30.41,62.17-14.2,19.74-153-23.28-168.41-127.15-10-67.35,37.39-123.23,47.5-135.14,36.31-42.82,88.83-60.72,92.12-56,2.57,3.7-28.1,16.08-43.14,49.64C338.09,846.38,355.89,896.46,378.68,960.57Z"/><path class="cls-11" d="M655.27,716.21a68,68,0,0,1,3.65-49,21.19,21.19,0,0,0,3.65-6.58c1.38-4.06-1.64-8,.73-11A4.38,4.38,0,0,1,664,649c2.64-2.05,7.52-.8,10.23,1.46,3.08,2.57,4.2,7.19,2.92,11.69-1.44,4.45-2.7,8.18-3.66,11-1.95,5.73-3.82,11.23-6.57,18.27-1.37,3.5-2.05,5.25-2.92,7.31A163.08,163.08,0,0,1,655.27,716.21Z"/><path class="cls-11" d="M743,706c-7.16,12-35.07,11.69-35.07,11.69h1.46c-.86-.16-6.37-1.2-7.31-4.39-1-3.38,3.21-9,11.69-11.69a18.35,18.35,0,0,1-4.38,1.46,20.12,20.12,0,0,1-7.31,0c-3.87-.66-6-1-7.3-2.92a6.62,6.62,0,0,1,0-7.31,7.08,7.08,0,0,1,5.84-2.92c-7.29-2.09-8.77-2.92-8.77-2.92-1.72-1-5.49-3.12-6-6.5s2.53-7.38,7.42-9.58a9,9,0,0,1-6.39-2.74,8.87,8.87,0,0,1-2.37-6s0-10.23,17.53-11.69,20.46,1.46,20.46,1.46a9.07,9.07,0,0,1,4.39,2.92c2.94,3.67,1.6,8.31,1.46,8.77a11.13,11.13,0,0,1,5.85,14.62,10.55,10.55,0,0,1,5.84,5.84,10.36,10.36,0,0,1,0,7.31,9.45,9.45,0,0,1,4.39,4.39"/><rect class="cls-43" x="475.51" y="805.35" width="89.15" height="35.07"/><rect class="cls-44" x="548.58" y="821.43" width="1.46" height="1.46"/><path d="M486.27,816.38a14.81,14.81,0,0,1,2.79-.25,4.83,4.83,0,0,1,3.24.86,2.48,2.48,0,0,1,1,2.09,2.8,2.8,0,0,1-2,2.59v0a3,3,0,0,1,2.43,3,3.18,3.18,0,0,1-1,2.37c-.82.75-2.15,1.1-4.08,1.1a18,18,0,0,1-2.37-.14Zm1.53,4.84h1.38c1.62,0,2.56-.85,2.56-2,0-1.39-1.05-1.93-2.59-1.93a6.84,6.84,0,0,0-1.35.1Zm0,5.66a8.45,8.45,0,0,0,1.28.07c1.58,0,3-.58,3-2.3s-1.38-2.28-3.05-2.28H487.8Z"/><path d="M497.69,824.32,496.46,828h-1.58l4-11.82h1.84l4,11.82h-1.63l-1.26-3.72Zm3.87-1.19-1.15-3.4c-.27-.78-.44-1.48-.62-2.16h0c-.18.7-.37,1.42-.6,2.14L498,823.13Z"/><path d="M506.51,816.22H508v5.7h0c.31-.46.63-.88.93-1.26l3.61-4.44h1.89l-4.27,5,4.61,6.81h-1.81l-3.89-5.81-1.12,1.3V828h-1.53Z"/><path d="M515.81,826.18a5.39,5.39,0,0,0,2.73.77c1.56,0,2.47-.82,2.47-2s-.63-1.73-2.22-2.35c-1.93-.68-3.12-1.68-3.12-3.34,0-1.85,1.52-3.21,3.82-3.21a5.35,5.35,0,0,1,2.61.58l-.42,1.24a4.74,4.74,0,0,0-2.24-.56c-1.62,0-2.23,1-2.23,1.77,0,1.1.72,1.65,2.35,2.28,2,.77,3,1.73,3,3.47s-1.35,3.4-4.13,3.4a6.13,6.13,0,0,1-3-.75Z"/><path d="M526.19,816.22V828h-1.53V816.22Z"/><path d="M528.85,816.22h1.53v10.54h5V828h-6.58Z"/><path d="M537.13,816.22h1.53v10.54h5.05V828h-6.58Z"/><path d="M547.32,824.32,546.09,828h-1.58l4-11.82h1.84l4,11.82h-1.63l-1.26-3.72Zm3.87-1.19-1.15-3.4c-.27-.78-.44-1.48-.62-2.16h0c-.18.7-.37,1.42-.6,2.14l-1.15,3.42Z"/><ellipse class="cls-45" cx="442.24" cy="353.72" rx="47.71" ry="45.35"/><ellipse class="cls-45" cx="442.24" cy="353.72" rx="17.89" ry="17.01"/><ellipse class="cls-32" cx="442.24" cy="353.72" rx="11.93" ry="11.34"/><ellipse class="cls-45" cx="543.08" cy="914.92" rx="17.89" ry="17.01"/><ellipse class="cls-32" cx="543.08" cy="914.92" rx="11.93" ry="11.34"/><path class="cls-46" d="M460.89,1017.27c-11.35-92.87-28.65-115.59-43.11-117.72-16.26-2.4-39.14,19.78-38.2,40.55,1,22.32,29.23,36.41,49.16,39.17,35.35,4.9,60.55-23.62,62.84-26.31"/><ellipse class="cls-47" cx="497.43" cy="947.12" rx="10.23" ry="7.31" transform="translate(-488.83 532.69) rotate(-39.5)"/><path class="cls-27" d="M560.61,447.22c-34,2.69-52.87,37.08-59.54,65.22"/><path class="cls-28" d="M723.22,530.09c10.6,37.45,30.17,109.83,9.63,197.89-12.58,53.95-24.38,104.57-69.4,133.77-40.15,26-52.13-.39-188.92,18.32-41.22,5.64-76.48,13-111.81-5.5-20.79-10.88-33-26.19-40.49-36.64C189.8,654.33,208.49,530.09,208.49,530.09c15.4-102.35,91.85-247.8,217.84-260.2,109.66-10.79,195.47,79.47,214,98.95C693.07,424.32,710.08,483.72,723.22,530.09Z"/><path class="cls-11" d="M282.71,572.26C280.11,562,268,514.55,288.5,500.8c8.34-5.6,14.13-.26,25.06-5.5,20.81-10,14.07-35.55,34.7-75.12,11.27-21.62,25.6-35.36,32.77-42.15,13.11-12.41,30.87-29.21,50.12-33,42.67-8.35,85.11,49.69,138.81,115.44,6.19,7.58,9.48,11.83,11.93,15.14,14.13,19.06,39.74,53.6,47.83,96.63,2.34,12.48,8.47,44.12-3.86,75.13-23.2,58.39-101.14,94.67-169.64,89.79C345.58,729.29,294.5,618.63,282.71,572.26Z"/><path class="cls-11" d="M307.12,536.42c-3.47,21.79-17.61,57.84-37.83,57.8-18.22,0-33.32-30.1-35.73-52.9-2.61-24.67,8.29-53.65,25.06-58.87a53.1,53.1,0,0,1,11.56-1.84c8.8-.48,18.77,1,24.33,3.9C313.26,494.26,307.58,533.51,307.12,536.42Z"/><path class="cls-11" d="M496.5,870.65a40.36,40.36,0,0,1-18.34,7.66c-18.19,2.45-33-9.76-39.17-15.61l-10-88.39q-4-35.47-8-70.95L487,722.82c7.42,15.93,8.47,27.72,8,35.66-.33,5.48-1.31,7.66-4.37,22.86,0,0-2.94,14.58-4.78,26.25C484.16,818.09,484.08,837.25,496.5,870.65Z"/><path class="cls-17" d="M445.61,552.08c-1.37,6.69-35.35,11.87-69.4,1.83-17.32-5.11-49.88-14.71-52-33-2.41-20.34,33.08-49.06,67.47-44,0,0,33.84,5.61,50.13,49.47a34.37,34.37,0,0,1,1.92,7.33c.53,4.66-.58,6.39,0,11C444.31,549.67,445.93,550.51,445.61,552.08Z"/><path class="cls-17" d="M502.18,528.44c.7,4.73,33.4,9,69.7-1.1,15.29-4.27,30.51-8.53,32.78-18.32.64-2.8-4.71-11.07-15.43-27.49,0,0-12.6-19.31-23.13-29.32l-1.93-1.83c-1.79-1.71-1.88-1.79-1.93-1.83-1-.89-3.74-1.18-11.59,1.45h0s-33.36,7.8-46.46,52.6a33.94,33.94,0,0,0-1.4,7.44c-.13,3.05.35,4.82.48,8a30.27,30.27,0,0,1-.24,6.64C502.6,527.36,502.08,527.81,502.18,528.44Z"/><path class="cls-29" d="M507,507.21c2.26,15.66,19.14,25.93,35.05,24.71,15.6-1.2,30.34-13.45,30.34-28.95,0-16.81-17.31-30.1-34.93-29S504.54,490.51,507,507.21Z"/><ellipse cx="539.11" cy="501.69" rx="22.17" ry="21.07"/><ellipse class="cls-5" cx="572.51" cy="485.31" rx="5.78" ry="5.5"/><path class="cls-29" d="M413.8,525.51c-.73,15.86-15.74,28-31.8,28.4-16.73.45-33-11.8-33.74-28.4-.79-17.08,15.14-31.15,32.77-31.15S414.59,508.55,413.8,525.51Z"/><ellipse cx="379.1" cy="521.84" rx="22.17" ry="21.07"/><ellipse class="cls-5" cx="372.36" cy="513.6" rx="5.78" ry="5.5"/><ellipse class="cls-5" cx="526.58" cy="502.6" rx="5.78" ry="5.5"/><path class="cls-30" d="M407.68,639.26c-2.62-3.8-7.41-9.56-13.15-9.31-3.34.15-5.42,2.25-9.64,5.5a115.93,115.93,0,0,1-17.35,11"/><path class="cls-30" d="M515.57,643.25c8-1.17,17.64-3.33,22.7-9.91,6.27-8.17,1.68-18.74,3.68-27.89"/><path class="cls-31" d="M446.58,582.31s19.27-23.82,38.55-20.15S489,589.64,489,589.64s-5.79,9.16-21.21,7.33"/><path class="cls-32" d="M512.12,648.28c-2.29,14.19,1,18.89,0,29.31-.44,4.85-1.94,21.32-13.49,29.32-15.24,10.56-43.12,3.05-54-11-1-1.34-.07-.35-9.64-18.33-8.87-16.65-10.24-18.51-11.57-20.15C415,647.08,406.92,644.29,408,641c.93-2.84,7.4-2.87,15.42-3.67,17.31-1.73,18-4.68,34.7-7.33,4.82-.76,49.9-7.64,55.91,5.5C515.34,638.28,513.57,639.29,512.12,648.28Z"/><path class="cls-21" d="M512.89,636.37c-.31-1-1.3-3.28-6-5.5-14.27-6.74-39.8-2.57-44.12-1.83-12.09,2.06-11.46,3.09-26.07,5.49-13.74,2.26-17.54,1.88-18.05,3.67-1.46,5,26.1,17.71,51.14,21.07,7.1,1,12.76.64,24.07,0,11.48-.64,15.59-1.87,17.05-4.58,1.3-2.43-.84-3.67,0-9.16C511.63,640.59,513.73,639.2,512.89,636.37Z"/><path class="cls-28" d="M419.05,460c-1.74,1.59-12.4-14-31.7-16.67-23.65-3.31-42.47,15.21-43.45,13.82-1.15-1.62,22.51-30.47,48.06-24.55C410.92,437,421,458.24,419.05,460Z"/><path class="cls-28" d="M507.6,451.64c1.9,1.42,10.81-15.11,29.7-19.7,23.16-5.62,43.91,10.93,44.73,9.46,1-1.73-25.72-28.09-50.48-19.68C513.17,428,505.51,450.09,507.6,451.64Z"/><ellipse class="cls-33" cx="345.52" cy="577.92" rx="4.01" ry="3.81"/><ellipse class="cls-33" cx="366.37" cy="579.45" rx="4.01" ry="3.81"/><ellipse class="cls-33" cx="355.14" cy="597.74" rx="4.01" ry="3.81"/><ellipse class="cls-33" cx="594.44" cy="550.42" rx="3.83" ry="3.64"/><ellipse class="cls-33" cx="567.92" cy="554.34" rx="3.83" ry="3.64"/><ellipse class="cls-33" cx="587.13" cy="572.65" rx="3.83" ry="3.64"/><path class="cls-31" d="M295.81,512c-2.27-8.83-8.82-15.85-16.95-17.62-11.56-2.53-25.47,5.72-28.92,20.15"/><path class="cls-31" d="M263.44,545.66a53.78,53.78,0,0,1,1.92-31.15,55.55,55.55,0,0,1,12.37-19.24"/><path class="cls-13" d="M295.66,571.32s-13.19,23.82-23.67,22.9-24.9-4.56-36-40.3,6.24-74.22,35.16-74.22,33.3,16.62,33.3,16.62l7.18,16.36"/><path class="cls-31" d="M351.15,467.79s17.35-14.66,36.63-3.67"/><path class="cls-15" d="M474.55,679c-4.13-4.13-10.86-3.91-18.38-2.83A94.78,94.78,0,0,0,439,680.5a10.9,10.9,0,0,1-.15,1.28l38.58,10.47C477.82,690.19,478.88,683.28,474.55,679Z"/><path class="cls-34" d="M475.88,680.78a13.11,13.11,0,0,0,1.67.21c1.64,0,2.76-.36,5.28-.28,2.21.07,6.7.16,10.13,2.56,5.16,3.6,5.54,10.09,5.69,12.14s.53,7.8-3.35,11.61c-3.47,3.41-8.4,3.42-13.86,3.45a42.67,42.67,0,0,1-20.92-4.74c-9.68-5.12-20.26-15.73-17.63-21.3,1.5-3.16,6.95-4,13.85-5.1,3.57-.56,8.29-1.3,12.16-.13A55.57,55.57,0,0,0,475.88,680.78Z"/><path class="cls-35" d="M467.78,675.76s12.1,3,9.91,12.5"/><path class="cls-36" d="M512.12,388.08a153.53,153.53,0,0,0-142.66-1.83l10.13-11.91c1.32-1.81,24.67-32.42,65.06-30.24,38.16,2.06,57.65,31.56,59.28,34.12Z"/><path class="cls-5" d="M597,974.85A1189.77,1189.77,0,0,0,569,768a340.57,340.57,0,0,0-39.46-16c-14-4.69-22.09-7.35-33.61-8.75-1.53-.19-4.83-1.83-8.36-.61-5.95,2.06-8.17,9.84-9.18,13.09-1.24,4-11.6,37.38-23.38,39.45-11.37,2-26.86-24.6-26.31-39.45.07-2,.23-6.15.84-7.93-1.58-1.93-3.91-4.67-6.69-6-8.11-3.9-18.55,5.94-27.76,10.21-11.66,5.41-27.2,13.07-45.31,23.34a1052.2,1052.2,0,0,0-16.07,265.46q1.65,24.63,4.38,48.14l258.68-1.46q1.26-25,1.46-51.05.18-27.93-.93-54.91A6.16,6.16,0,0,1,597,974.85Z"/><rect class="cls-5" x="406.03" y="824.19" width="124.34" height="131.87" transform="translate(722.54 -82.94) rotate(42.39)"/><path class="cls-5" d="M495.46,741.49A6.1,6.1,0,0,1,490,744.3c-5.2,9.24-14.42,14.89-23.61,17.33-13.69,3.64-30.58.27-38.43-12-3.68-1-5.11-5.13-4.45-8.76q-15,17-30.51,36.05-14.76,18.18-27.93,35.79l94.59,106,96.19-106.07Q525.67,777.08,495.46,741.49Z"/><path class="cls-37" d="M522,850l33.85-37.33-60.43-71.17-3.2-.21a6.25,6.25,0,0,1-2.57,3,6.38,6.38,0,0,1-4.93,4.62c-1,.24-2,.45-3,.65a7.22,7.22,0,0,1-3.22,5.57c-12.69,8.87-31.21,11.22-43.38-.1a17.54,17.54,0,0,1-3.67-5.35,40.16,40.16,0,0,0-2.73-4.42,8.12,8.12,0,0,1-2.85-1.72,4.88,4.88,0,0,1-.48-.54l-.52-.45a7,7,0,0,1-1.89-3.4.93.93,0,0,1-.13-.15l-58.45,73.66,42.38,46.77L379.05,896l92.07,84.76,87.69-97.92Z"/><path class="cls-27" d="M601.19,969.42c-24.84-32.53-21.92-77.84-24.84-117.3"/><path class="cls-27" d="M340.26,860.14s-10,83-4.63,104.73"/><path class="cls-38" d="M748.8,744c7-10.27,2.84-24.56-14.61-67.22q-1.47-3.59-3.09-7.49c-6.34-15.32-6.34-14.57-7.31-17.45-4.55-13.4-1.51-19.81-5.68-21.83-3.34-1.62-6.14,2.09-13.15,2.92s-13.28-1.84-17.54-4.38c-2.17,8.21-5.49,19.84-10.23,33.61-6.69,19.41-9.81,29.18-13.15,36.54-8.65,19-15,25.65-11.7,33.61,1.85,4.47,5.74,7,13.16,11.69,7.74,4.95,14.62,7,20.46,8.77a103.3,103.3,0,0,0,24.84,4.39,38.54,38.54,0,0,0,21.92-1.46c1.15-.44,11-4.28,16.08-11.7"/><rect class="cls-39" x="685.96" y="627.06" width="35.07" height="7.31"/><path class="cls-17" d="M724,706c9.47,19.53,8.13,23.25,7.31,24.84-4.27,8.27-19.76,7.63-27.77,7.31-5.36-.22-27.35-1.12-30.69-11.69-.84-2.67-.38-5.59,10.23-21.93,11.48-17.67,17.32-26.51,21.93-26.3C710.62,678.46,715.06,687.63,724,706Z"/><path class="cls-40" d="M550,900.35c5.09-11.92,14.75-39.25,8.77-73.07-9.84-55.62-54.07-84.1-61.7-88.84"/><path class="cls-40" d="M421.53,737.12A107,107,0,0,0,391,765.87c-41,58.17-5.19,137.39-1.75,144.71"/><path class="cls-41" d="M471.5,980.61q-25.1-121.93-50.17-243.86c1.71,1.8,20.08,20.52,45.19,15.64,16.69-3.24,29.3-18.66,29.3-18.66S479.6,898.31,471.5,980.61Z"/><line class="cls-42" x1="471.12" y1="980.73" x2="471.12" y2="1088.88"/><circle class="cls-21" cx="493.04" cy="989.5" r="10.96"/><path class="cls-5" d="M707.15,759.32c-6.24-5.13-13,.21-30-6.58-13.78-5.52-16.15-11.82-21.92-10.23-7.59,2.1-11.09,13.27-17.54,36.54-13.2,47.61-15.17,55.18-19,55.53-10.24,1-18.39-51-49.69-67.22-3-1.55-6.23-2.8-8.77-1.46-7.91,4.15.49,28.75,3.66,63.57,3.64,40.16,8.56,40.91,9.8,56.5,1.82,22.84-.78,25.46,2.62,39.22,3.12,12.65,8.27,33.49,27.29,45a7.71,7.71,0,0,1,3.76.68,119.27,119.27,0,0,0,23,7.12,45.89,45.89,0,0,0,21.93-4.58c5.45-2.72,16.8-9.91,30.69-52.61,12.3-37.8,7.29-44.09,18.27-95C709.26,788.93,717.14,767.53,707.15,759.32Z"/><path class="cls-5" d="M378.68,960.57c9.83,27.66,20,49.78,20,49.78,19.16,38.74,36.18,54.14,30.41,62.17-14.2,19.74-153-23.28-168.41-127.15-10-67.35,37.39-123.23,47.5-135.14,36.31-42.82,88.83-60.72,92.12-56,2.57,3.7-28.1,16.08-43.14,49.64C338.09,846.38,355.89,896.46,378.68,960.57Z"/><path class="cls-11" d="M655.27,716.21a68,68,0,0,1,3.65-49,21.19,21.19,0,0,0,3.65-6.58c1.38-4.06-1.64-8,.73-11A4.38,4.38,0,0,1,664,649c2.64-2.05,7.52-.8,10.23,1.46,3.08,2.57,4.2,7.19,2.92,11.69-1.44,4.45-2.7,8.18-3.66,11-1.95,5.73-3.82,11.23-6.57,18.27-1.37,3.5-2.05,5.25-2.92,7.31A163.08,163.08,0,0,1,655.27,716.21Z"/><path class="cls-11" d="M743,706c-7.16,12-35.07,11.69-35.07,11.69h1.46c-.86-.16-6.37-1.2-7.31-4.39-1-3.38,3.21-9,11.69-11.69a18.35,18.35,0,0,1-4.38,1.46,20.12,20.12,0,0,1-7.31,0c-3.87-.66-6-1-7.3-2.92a6.62,6.62,0,0,1,0-7.31,7.08,7.08,0,0,1,5.84-2.92c-7.29-2.09-8.77-2.92-8.77-2.92-1.72-1-5.49-3.12-6-6.5s2.53-7.38,7.42-9.58a9,9,0,0,1-6.39-2.74,8.87,8.87,0,0,1-2.37-6s0-10.23,17.53-11.69,20.46,1.46,20.46,1.46a9.07,9.07,0,0,1,4.39,2.92c2.94,3.67,1.6,8.31,1.46,8.77a11.13,11.13,0,0,1,5.85,14.62,10.55,10.55,0,0,1,5.84,5.84,10.36,10.36,0,0,1,0,7.31,9.45,9.45,0,0,1,4.39,4.39"/><rect class="cls-43" x="475.51" y="805.35" width="89.15" height="35.07"/><rect class="cls-44" x="548.58" y="821.43" width="1.46" height="1.46"/><path d="M486.27,816.38a14.81,14.81,0,0,1,2.79-.25,4.83,4.83,0,0,1,3.24.86,2.48,2.48,0,0,1,1,2.09,2.8,2.8,0,0,1-2,2.59v0a3,3,0,0,1,2.43,3,3.18,3.18,0,0,1-1,2.37c-.82.75-2.15,1.1-4.08,1.1a18,18,0,0,1-2.37-.14Zm1.53,4.84h1.38c1.62,0,2.56-.85,2.56-2,0-1.39-1.05-1.93-2.59-1.93a6.84,6.84,0,0,0-1.35.1Zm0,5.66a8.45,8.45,0,0,0,1.28.07c1.58,0,3-.58,3-2.3s-1.38-2.28-3.05-2.28H487.8Z"/><path d="M497.69,824.32,496.46,828h-1.58l4-11.82h1.84l4,11.82h-1.63l-1.26-3.72Zm3.87-1.19-1.15-3.4c-.27-.78-.44-1.48-.62-2.16h0c-.18.7-.37,1.42-.6,2.14L498,823.13Z"/><path d="M506.51,816.22H508v5.7h0c.31-.46.63-.88.93-1.26l3.61-4.44h1.89l-4.27,5,4.61,6.81h-1.81l-3.89-5.81-1.12,1.3V828h-1.53Z"/><path d="M515.81,826.18a5.39,5.39,0,0,0,2.73.77c1.56,0,2.47-.82,2.47-2s-.63-1.73-2.22-2.35c-1.93-.68-3.12-1.68-3.12-3.34,0-1.85,1.52-3.21,3.82-3.21a5.35,5.35,0,0,1,2.61.58l-.42,1.24a4.74,4.74,0,0,0-2.24-.56c-1.62,0-2.23,1-2.23,1.77,0,1.1.72,1.65,2.35,2.28,2,.77,3,1.73,3,3.47s-1.35,3.4-4.13,3.4a6.13,6.13,0,0,1-3-.75Z"/><path d="M526.19,816.22V828h-1.53V816.22Z"/><path d="M528.85,816.22h1.53v10.54h5V828h-6.58Z"/><path d="M537.13,816.22h1.53v10.54h5.05V828h-6.58Z"/><path d="M547.32,824.32,546.09,828h-1.58l4-11.82h1.84l4,11.82h-1.63l-1.26-3.72Zm3.87-1.19-1.15-3.4c-.27-.78-.44-1.48-.62-2.16h0c-.18.7-.37,1.42-.6,2.14l-1.15,3.42Z"/><ellipse class="cls-45" cx="442.24" cy="353.72" rx="47.71" ry="45.35"/><ellipse class="cls-45" cx="442.24" cy="353.72" rx="17.89" ry="17.01"/><ellipse class="cls-32" cx="442.24" cy="353.72" rx="11.93" ry="11.34"/><ellipse class="cls-45" cx="543.08" cy="914.92" rx="17.89" ry="17.01"/><ellipse class="cls-32" cx="543.08" cy="914.92" rx="11.93" ry="11.34"/><path class="cls-46" d="M460.89,1017.27c-11.35-92.87-28.65-115.59-43.11-117.72-16.26-2.4-39.14,19.78-38.2,40.55,1,22.32,29.23,36.41,49.16,39.17,35.35,4.9,60.55-23.62,62.84-26.31"/><ellipse class="cls-47" cx="497.43" cy="947.12" rx="10.23" ry="7.31" transform="translate(-488.83 532.69) rotate(-39.5)"/><path class="cls-27" d="M560.61,447.22c-34,2.69-52.87,37.08-59.54,65.22"/><path class="cls-28" d="M723.22,530.09c10.6,37.45,30.17,109.83,9.63,197.89-12.58,53.95-24.38,104.57-69.4,133.77-40.15,26-52.13-.39-188.92,18.32-41.22,5.64-76.48,13-111.81-5.5-20.79-10.88-33-26.19-40.49-36.64C189.8,654.33,208.49,530.09,208.49,530.09c15.4-102.35,91.85-247.8,217.84-260.2,109.66-10.79,195.47,79.47,214,98.95C693.07,424.32,710.08,483.72,723.22,530.09Z"/><path class="cls-11" d="M282.71,572.26C280.11,562,268,514.55,288.5,500.8c8.34-5.6,14.13-.26,25.06-5.5,20.81-10,14.07-35.55,34.7-75.12,11.27-21.62,25.6-35.36,32.77-42.15,13.11-12.41,30.87-29.21,50.12-33,42.67-8.35,85.11,49.69,138.81,115.44,6.19,7.58,9.48,11.83,11.93,15.14,14.13,19.06,39.74,53.6,47.83,96.63,2.34,12.48,8.47,44.12-3.86,75.13-23.2,58.39-101.14,94.67-169.64,89.79C345.58,729.29,294.5,618.63,282.71,572.26Z"/><path class="cls-11" d="M307.12,536.42c-3.47,21.79-17.61,57.84-37.83,57.8-18.22,0-33.32-30.1-35.73-52.9-2.61-24.67,8.29-53.65,25.06-58.87a53.1,53.1,0,0,1,11.56-1.84c8.8-.48,18.77,1,24.33,3.9C313.26,494.26,307.58,533.51,307.12,536.42Z"/><path class="cls-11" d="M496.5,870.65a40.36,40.36,0,0,1-18.34,7.66c-18.19,2.45-33-9.76-39.17-15.61l-10-88.39q-4-35.47-8-70.95L487,722.82c7.42,15.93,8.47,27.72,8,35.66-.33,5.48-1.31,7.66-4.37,22.86,0,0-2.94,14.58-4.78,26.25C484.16,818.09,484.08,837.25,496.5,870.65Z"/><path class="cls-17" d="M445.61,552.08c-1.37,6.69-35.35,11.87-69.4,1.83-17.32-5.11-49.88-14.71-52-33-2.41-20.34,33.08-49.06,67.47-44,0,0,33.84,5.61,50.13,49.47a34.37,34.37,0,0,1,1.92,7.33c.53,4.66-.58,6.39,0,11C444.31,549.67,445.93,550.51,445.61,552.08Z"/><path class="cls-17" d="M502.18,528.44c.7,4.73,33.4,9,69.7-1.1,15.29-4.27,30.51-8.53,32.78-18.32.64-2.8-4.71-11.07-15.43-27.49,0,0-12.6-19.31-23.13-29.32l-1.93-1.83c-1.79-1.71-1.88-1.79-1.93-1.83-1-.89-3.74-1.18-11.59,1.45h0s-33.36,7.8-46.46,52.6a33.94,33.94,0,0,0-1.4,7.44c-.13,3.05.35,4.82.48,8a30.27,30.27,0,0,1-.24,6.64C502.6,527.36,502.08,527.81,502.18,528.44Z"/><path class="cls-29" d="M507,507.21c2.26,15.66,19.14,25.93,35.05,24.71,15.6-1.2,30.34-13.45,30.34-28.95,0-16.81-17.31-30.1-34.93-29S504.54,490.51,507,507.21Z"/><ellipse cx="539.11" cy="501.69" rx="22.17" ry="21.07"/><ellipse class="cls-5" cx="572.51" cy="485.31" rx="5.78" ry="5.5"/><path class="cls-29" d="M413.8,525.51c-.73,15.86-15.74,28-31.8,28.4-16.73.45-33-11.8-33.74-28.4-.79-17.08,15.14-31.15,32.77-31.15S414.59,508.55,413.8,525.51Z"/><ellipse cx="379.1" cy="521.84" rx="22.17" ry="21.07"/><ellipse class="cls-5" cx="372.36" cy="513.6" rx="5.78" ry="5.5"/><ellipse class="cls-5" cx="526.58" cy="502.6" rx="5.78" ry="5.5"/><path class="cls-30" d="M407.68,639.26c-2.62-3.8-7.41-9.56-13.15-9.31-3.34.15-5.42,2.25-9.64,5.5a115.93,115.93,0,0,1-17.35,11"/><path class="cls-30" d="M515.57,643.25c8-1.17,17.64-3.33,22.7-9.91,6.27-8.17,1.68-18.74,3.68-27.89"/><path class="cls-31" d="M446.58,582.31s19.27-23.82,38.55-20.15S489,589.64,489,589.64s-5.79,9.16-21.21,7.33"/><path class="cls-32" d="M512.12,648.28c-2.29,14.19,1,18.89,0,29.31-.44,4.85-1.94,21.32-13.49,29.32-15.24,10.56-43.12,3.05-54-11-1-1.34-.07-.35-9.64-18.33-8.87-16.65-10.24-18.51-11.57-20.15C415,647.08,406.92,644.29,408,641c.93-2.84,7.4-2.87,15.42-3.67,17.31-1.73,18-4.68,34.7-7.33,4.82-.76,49.9-7.64,55.91,5.5C515.34,638.28,513.57,639.29,512.12,648.28Z"/><path class="cls-21" d="M512.89,636.37c-.31-1-1.3-3.28-6-5.5-14.27-6.74-39.8-2.57-44.12-1.83-12.09,2.06-11.46,3.09-26.07,5.49-13.74,2.26-17.54,1.88-18.05,3.67-1.46,5,26.1,17.71,51.14,21.07,7.1,1,12.76.64,24.07,0,11.48-.64,15.59-1.87,17.05-4.58,1.3-2.43-.84-3.67,0-9.16C511.63,640.59,513.73,639.2,512.89,636.37Z"/><path class="cls-28" d="M419.05,460c-1.74,1.59-12.4-14-31.7-16.67-23.65-3.31-42.47,15.21-43.45,13.82-1.15-1.62,22.51-30.47,48.06-24.55C410.92,437,421,458.24,419.05,460Z"/><path class="cls-28" d="M507.6,451.64c1.9,1.42,10.81-15.11,29.7-19.7,23.16-5.62,43.91,10.93,44.73,9.46,1-1.73-25.72-28.09-50.48-19.68C513.17,428,505.51,450.09,507.6,451.64Z"/><ellipse class="cls-33" cx="345.52" cy="577.92" rx="4.01" ry="3.81"/><ellipse class="cls-33" cx="366.37" cy="579.45" rx="4.01" ry="3.81"/><ellipse class="cls-33" cx="355.14" cy="597.74" rx="4.01" ry="3.81"/><ellipse class="cls-33" cx="594.44" cy="550.42" rx="3.83" ry="3.64"/><ellipse class="cls-33" cx="567.92" cy="554.34" rx="3.83" ry="3.64"/><ellipse class="cls-33" cx="587.13" cy="572.65" rx="3.83" ry="3.64"/><path class="cls-31" d="M295.81,512c-2.27-8.83-8.82-15.85-16.95-17.62-11.56-2.53-25.47,5.72-28.92,20.15"/><path class="cls-31" d="M263.44,545.66a53.78,53.78,0,0,1,1.92-31.15,55.55,55.55,0,0,1,12.37-19.24"/><path class="cls-13" d="M295.66,571.32s-13.19,23.82-23.67,22.9-24.9-4.56-36-40.3,6.24-74.22,35.16-74.22,33.3,16.62,33.3,16.62l7.18,16.36"/><path class="cls-31" d="M351.15,467.79s17.35-14.66,36.63-3.67"/><path class="cls-15" d="M474.55,679c-4.13-4.13-10.86-3.91-18.38-2.83A94.78,94.78,0,0,0,439,680.5a10.9,10.9,0,0,1-.15,1.28l38.58,10.47C477.82,690.19,478.88,683.28,474.55,679Z"/><path class="cls-34" d="M475.88,680.78a13.11,13.11,0,0,0,1.67.21c1.64,0,2.76-.36,5.28-.28,2.21.07,6.7.16,10.13,2.56,5.16,3.6,5.54,10.09,5.69,12.14s.53,7.8-3.35,11.61c-3.47,3.41-8.4,3.42-13.86,3.45a42.67,42.67,0,0,1-20.92-4.74c-9.68-5.12-20.26-15.73-17.63-21.3,1.5-3.16,6.95-4,13.85-5.1,3.57-.56,8.29-1.3,12.16-.13A55.57,55.57,0,0,0,475.88,680.78Z"/><path class="cls-35" d="M467.78,675.76s12.1,3,9.91,12.5"/><path class="cls-36" d="M512.12,388.08a153.53,153.53,0,0,0-142.66-1.83l10.13-11.91c1.32-1.81,24.67-32.42,65.06-30.24,38.16,2.06,57.65,31.56,59.28,34.12Z"/><path class="cls-5" d="M597,974.85A1189.77,1189.77,0,0,0,569,768a340.57,340.57,0,0,0-39.46-16c-14-4.69-22.09-7.35-33.61-8.75-1.53-.19-4.83-1.83-8.36-.61-5.95,2.06-8.17,9.84-9.18,13.09-1.24,4-11.6,37.38-23.38,39.45-11.37,2-26.86-24.6-26.31-39.45.07-2,.23-6.15.84-7.93-1.58-1.93-3.91-4.67-6.69-6-8.11-3.9-18.55,5.94-27.76,10.21-11.66,5.41-27.2,13.07-45.31,23.34a1052.2,1052.2,0,0,0-16.07,265.46q1.65,24.63,4.38,48.14l258.68-1.46q1.26-25,1.46-51.05.18-27.93-.93-54.91A6.16,6.16,0,0,1,597,974.85Z"/><rect class="cls-5" x="406.03" y="824.19" width="124.34" height="131.87" transform="translate(722.54 -82.94) rotate(42.39)"/><path class="cls-5" d="M495.46,741.49A6.1,6.1,0,0,1,490,744.3c-5.2,9.24-14.42,14.89-23.61,17.33-13.69,3.64-30.58.27-38.43-12-3.68-1-5.11-5.13-4.45-8.76q-15,17-30.51,36.05-14.76,18.18-27.93,35.79l94.59,106,96.19-106.07Q525.67,777.08,495.46,741.49Z"/><path class="cls-37" d="M522,850l33.85-37.33-60.43-71.17-3.2-.21a6.25,6.25,0,0,1-2.57,3,6.38,6.38,0,0,1-4.93,4.62c-1,.24-2,.45-3,.65a7.22,7.22,0,0,1-3.22,5.57c-12.69,8.87-31.21,11.22-43.38-.1a17.54,17.54,0,0,1-3.67-5.35,40.16,40.16,0,0,0-2.73-4.42,8.12,8.12,0,0,1-2.85-1.72,4.88,4.88,0,0,1-.48-.54l-.52-.45a7,7,0,0,1-1.89-3.4.93.93,0,0,1-.13-.15l-58.45,73.66,42.38,46.77L379.05,896l92.07,84.76,87.69-97.92Z"/><path class="cls-27" d="M601.19,969.42c-24.84-32.53-21.92-77.84-24.84-117.3"/><path class="cls-27" d="M340.26,860.14s-10,83-4.63,104.73"/><path class="cls-38" d="M748.8,744c7-10.27,2.84-24.56-14.61-67.22q-1.47-3.59-3.09-7.49c-6.34-15.32-6.34-14.57-7.31-17.45-4.55-13.4-1.51-19.81-5.68-21.83-3.34-1.62-6.14,2.09-13.15,2.92s-13.28-1.84-17.54-4.38c-2.17,8.21-5.49,19.84-10.23,33.61-6.69,19.41-9.81,29.18-13.15,36.54-8.65,19-15,25.65-11.7,33.61,1.85,4.47,5.74,7,13.16,11.69,7.74,4.95,14.62,7,20.46,8.77a103.3,103.3,0,0,0,24.84,4.39,38.54,38.54,0,0,0,21.92-1.46c1.15-.44,11-4.28,16.08-11.7"/><rect class="cls-39" x="685.96" y="627.06" width="35.07" height="7.31"/><path class="cls-17" d="M724,706c9.47,19.53,8.13,23.25,7.31,24.84-4.27,8.27-19.76,7.63-27.77,7.31-5.36-.22-27.35-1.12-30.69-11.69-.84-2.67-.38-5.59,10.23-21.93,11.48-17.67,17.32-26.51,21.93-26.3C710.62,678.46,715.06,687.63,724,706Z"/><path class="cls-40" d="M550,900.35c5.09-11.92,14.75-39.25,8.77-73.07-9.84-55.62-54.07-84.1-61.7-88.84"/><path class="cls-40" d="M421.53,737.12A107,107,0,0,0,391,765.87c-41,58.17-5.19,137.39-1.75,144.71"/><path class="cls-41" d="M471.5,980.61q-25.1-121.93-50.17-243.86c1.71,1.8,20.08,20.52,45.19,15.64,16.69-3.24,29.3-18.66,29.3-18.66S479.6,898.31,471.5,980.61Z"/><line class="cls-42" x1="471.12" y1="980.73" x2="471.12" y2="1088.88"/><circle class="cls-21" cx="493.04" cy="989.5" r="10.96"/><path class="cls-5" d="M707.15,759.32c-6.24-5.13-13,.21-30-6.58-13.78-5.52-16.15-11.82-21.92-10.23-7.59,2.1-11.09,13.27-17.54,36.54-13.2,47.61-15.17,55.18-19,55.53-10.24,1-18.39-51-49.69-67.22-3-1.55-6.23-2.8-8.77-1.46-7.91,4.15.49,28.75,3.66,63.57,3.64,40.16,8.56,40.91,9.8,56.5,1.82,22.84-.78,25.46,2.62,39.22,3.12,12.65,8.27,33.49,27.29,45a7.71,7.71,0,0,1,3.76.68,119.27,119.27,0,0,0,23,7.12,45.89,45.89,0,0,0,21.93-4.58c5.45-2.72,16.8-9.91,30.69-52.61,12.3-37.8,7.29-44.09,18.27-95C709.26,788.93,717.14,767.53,707.15,759.32Z"/><path class="cls-5" d="M378.68,960.57c9.83,27.66,20,49.78,20,49.78,19.16,38.74,36.18,54.14,30.41,62.17-14.2,19.74-153-23.28-168.41-127.15-10-67.35,37.39-123.23,47.5-135.14,36.31-42.82,88.83-60.72,92.12-56,2.57,3.7-28.1,16.08-43.14,49.64C338.09,846.38,355.89,896.46,378.68,960.57Z"/><path class="cls-11" d="M655.27,716.21a68,68,0,0,1,3.65-49,21.19,21.19,0,0,0,3.65-6.58c1.38-4.06-1.64-8,.73-11A4.38,4.38,0,0,1,664,649c2.64-2.05,7.52-.8,10.23,1.46,3.08,2.57,4.2,7.19,2.92,11.69-1.44,4.45-2.7,8.18-3.66,11-1.95,5.73-3.82,11.23-6.57,18.27-1.37,3.5-2.05,5.25-2.92,7.31A163.08,163.08,0,0,1,655.27,716.21Z"/><path class="cls-11" d="M743,706c-7.16,12-35.07,11.69-35.07,11.69h1.46c-.86-.16-6.37-1.2-7.31-4.39-1-3.38,3.21-9,11.69-11.69a18.35,18.35,0,0,1-4.38,1.46,20.12,20.12,0,0,1-7.31,0c-3.87-.66-6-1-7.3-2.92a6.62,6.62,0,0,1,0-7.31,7.08,7.08,0,0,1,5.84-2.92c-7.29-2.09-8.77-2.92-8.77-2.92-1.72-1-5.49-3.12-6-6.5s2.53-7.38,7.42-9.58a9,9,0,0,1-6.39-2.74,8.87,8.87,0,0,1-2.37-6s0-10.23,17.53-11.69,20.46,1.46,20.46,1.46a9.07,9.07,0,0,1,4.39,2.92c2.94,3.67,1.6,8.31,1.46,8.77a11.13,11.13,0,0,1,5.85,14.62,10.55,10.55,0,0,1,5.84,5.84,10.36,10.36,0,0,1,0,7.31,9.45,9.45,0,0,1,4.39,4.39"/><rect class="cls-43" x="475.51" y="805.35" width="89.15" height="35.07"/><rect class="cls-44" x="548.58" y="821.43" width="1.46" height="1.46"/><path d="M486.27,816.38a14.81,14.81,0,0,1,2.79-.25,4.83,4.83,0,0,1,3.24.86,2.48,2.48,0,0,1,1,2.09,2.8,2.8,0,0,1-2,2.59v0a3,3,0,0,1,2.43,3,3.18,3.18,0,0,1-1,2.37c-.82.75-2.15,1.1-4.08,1.1a18,18,0,0,1-2.37-.14Zm1.53,4.84h1.38c1.62,0,2.56-.85,2.56-2,0-1.39-1.05-1.93-2.59-1.93a6.84,6.84,0,0,0-1.35.1Zm0,5.66a8.45,8.45,0,0,0,1.28.07c1.58,0,3-.58,3-2.3s-1.38-2.28-3.05-2.28H487.8Z"/><path d="M497.69,824.32,496.46,828h-1.58l4-11.82h1.84l4,11.82h-1.63l-1.26-3.72Zm3.87-1.19-1.15-3.4c-.27-.78-.44-1.48-.62-2.16h0c-.18.7-.37,1.42-.6,2.14L498,823.13Z"/><path d="M506.51,816.22H508v5.7h0c.31-.46.63-.88.93-1.26l3.61-4.44h1.89l-4.27,5,4.61,6.81h-1.81l-3.89-5.81-1.12,1.3V828h-1.53Z"/><path d="M515.81,826.18a5.39,5.39,0,0,0,2.73.77c1.56,0,2.47-.82,2.47-2s-.63-1.73-2.22-2.35c-1.93-.68-3.12-1.68-3.12-3.34,0-1.85,1.52-3.21,3.82-3.21a5.35,5.35,0,0,1,2.61.58l-.42,1.24a4.74,4.74,0,0,0-2.24-.56c-1.62,0-2.23,1-2.23,1.77,0,1.1.72,1.65,2.35,2.28,2,.77,3,1.73,3,3.47s-1.35,3.4-4.13,3.4a6.13,6.13,0,0,1-3-.75Z"/><path d="M526.19,816.22V828h-1.53V816.22Z"/><path d="M528.85,816.22h1.53v10.54h5V828h-6.58Z"/><path d="M537.13,816.22h1.53v10.54h5.05V828h-6.58Z"/><path d="M547.32,824.32,546.09,828h-1.58l4-11.82h1.84l4,11.82h-1.63l-1.26-3.72Zm3.87-1.19-1.15-3.4c-.27-.78-.44-1.48-.62-2.16h0c-.18.7-.37,1.42-.6,2.14l-1.15,3.42Z"/><ellipse class="cls-45" cx="442.24" cy="353.72" rx="47.71" ry="45.35"/><ellipse class="cls-45" cx="442.24" cy="353.72" rx="17.89" ry="17.01"/><ellipse class="cls-32" cx="442.24" cy="353.72" rx="11.93" ry="11.34"/><ellipse class="cls-45" cx="543.08" cy="914.92" rx="17.89" ry="17.01"/><ellipse class="cls-32" cx="543.08" cy="914.92" rx="11.93" ry="11.34"/><path class="cls-46" d="M460.89,1017.27c-11.35-92.87-28.65-115.59-43.11-117.72-16.26-2.4-39.14,19.78-38.2,40.55,1,22.32,29.23,36.41,49.16,39.17,35.35,4.9,60.55-23.62,62.84-26.31"/><ellipse class="cls-47" cx="497.43" cy="947.12" rx="10.23" ry="7.31" transform="translate(-488.83 532.69) rotate(-39.5)"/><path class="cls-37" d="M344,874c1.46,10.23-20.46,58.46,4.38,89.15"/><path class="cls-38" d="M673.35,602.34s60-34.59,77.26-21.91l1.15,18.45-26.52,5.77L728.7,615h-9.23l25.37,34.6-32.28-20.76L686,627.71l2.31-17.3Z"/><path class="cls-48" d="M744.67,582.38a11.75,11.75,0,0,0-1.5,5.5,12.16,12.16,0,0,0,3,8"/></g><g id="Layer_7" data-name="Layer 7"><polygon class="cls-49" points="1273.74 1017.5 1045.54 989.75 872.19 1090.61 852.45 947.43 648.89 880.55 864.89 819.82 912.44 677.63 1065.67 783.26 1298.61 762.27 1177.31 888.29 1273.74 1017.5"/><polygon class="cls-49" points="1042.99 1095.41 903.72 985.56 685.66 997.92 803.22 877.8 717.77 746.7 929.69 782.32 1094.94 688.94 1108.36 831.07 1295.94 904.45 1092.3 956.68 1042.99 1095.41"/></g><g id="Layer_6" data-name="Layer 6"><polygon class="cls-3" points="1245.83 1001.41 1038.86 976.25 881.64 1067.71 863.74 937.86 679.11 877.2 875.02 822.12 918.14 693.16 1057.12 788.97 1268.39 769.92 1158.38 884.22 1245.83 1001.41"/><polygon class="cls-3" points="1036.55 1072.08 910.23 972.44 712.46 983.65 819.08 874.71 741.58 755.8 933.79 788.11 1083.67 703.41 1095.84 832.32 1265.96 898.88 1081.27 946.25 1036.55 1072.08"/><path class="cls-37" d="M842.29,827.87a10.62,10.62,0,0,1-2.55,7.08,21.63,21.63,0,0,1-6.07,5c-2.12,1.3-4.29,2.68-6.52,4.16A41.22,41.22,0,0,0,821,849a24,24,0,0,0-4.58,6.11,16.08,16.08,0,0,0-1.76,7.61,13,13,0,0,0,1.76,6.73,38.19,38.19,0,0,0,4.31,5.93q2.55,2.93,5.64,6a46.7,46.7,0,0,1,5.63,6.91,41,41,0,0,1,4.32,8.58,31.78,31.78,0,0,1-.09,21.16,64.61,64.61,0,0,1-5,11.24,77.22,77.22,0,0,1-7.48,11,73.66,73.66,0,0,1-9.16,9.47,47.18,47.18,0,0,1-10.13,6.73,23.32,23.32,0,0,1-10.21,2.57,16.29,16.29,0,0,1-9.68-3q-4.23-3-4.23-9a15,15,0,0,1,1.94-7.53,38.48,38.48,0,0,1,4.75-6.64,70.39,70.39,0,0,1,6.25-6.19q3.43-3,6.25-6a36.41,36.41,0,0,0,4.76-6.29,13.49,13.49,0,0,0,1.93-7,19.05,19.05,0,0,0-3.6-10.54q-3.62-5.39-8-11.15a127.29,127.29,0,0,1-8-11.77A23.49,23.49,0,0,1,783,861.68a37,37,0,0,1,4-16,64.46,64.46,0,0,1,10.39-15.4,59.76,59.76,0,0,1,14.26-11.6,31.05,31.05,0,0,1,15.68-4.6,15.82,15.82,0,0,1,10.56,3.72A12.52,12.52,0,0,1,842.29,827.87Z"/><path class="cls-37" d="M924.7,831.23a11.47,11.47,0,0,1-3.43,8.06,35.12,35.12,0,0,1-8.28,6.37,59,59,0,0,1-10,4.51,70.69,70.69,0,0,1-8.45,2.48q-1.41,13.64-2.2,27.18T891.6,907q0,7.26.35,14.34t.35,14.16a44,44,0,0,1-.61,7,29.17,29.17,0,0,1-2.12,7.17,16.08,16.08,0,0,1-4.13,5.67,9.62,9.62,0,0,1-6.52,2.3,10.25,10.25,0,0,1-7.31-2.57,17.27,17.27,0,0,1-4.22-6.28,31.58,31.58,0,0,1-2-7.88,60.64,60.64,0,0,1-.53-7.53q-.35-10.62-.53-21.33t-.17-21.51q0-9,.09-17.7t.08-17.71c-1.64.24-3.31.42-5,.53s-3.44.18-5.2.18a46.41,46.41,0,0,1-5.55-.44,31,31,0,0,1-6.6-1.6,16.56,16.56,0,0,1-5.46-3.18,6.71,6.71,0,0,1-2.29-5.23,12.51,12.51,0,0,1,4.14-9.29,37.3,37.3,0,0,1,10.57-6.91,88.76,88.76,0,0,1,14.26-5,150.3,150.3,0,0,1,15.5-3.19q7.65-1.15,14.08-1.68c4.29-.35,7.6-.53,10-.53s4.61.09,7.13.26a25.63,25.63,0,0,1,7.14,1.51,13.61,13.61,0,0,1,5.54,3.72A10,10,0,0,1,924.7,831.23Z"/><path class="cls-37" d="M1002.71,926a70.54,70.54,0,0,1-.61,8.5,40,40,0,0,1-2.38,9.47,22.6,22.6,0,0,1-4.76,7.61,10.49,10.49,0,0,1-7.92,3.1q-6.51,0-9.77-4.78a31.63,31.63,0,0,1-4.67-11.42,79.18,79.18,0,0,1-1.67-13.54c-.18-4.61-.33-8.26-.44-11q-12.68,2.13-25,3.72c-.23,2.71-.73,6.08-1.49,10.09a56.29,56.29,0,0,1-3.53,11.59A32.94,32.94,0,0,1,934.3,949a12.15,12.15,0,0,1-9.24,4.08,7.89,7.89,0,0,1-6.61-3.1,22.14,22.14,0,0,1-3.61-7.35,39.35,39.35,0,0,1-1.49-8.76q-.27-4.51-.27-7.53a124.37,124.37,0,0,1,1.59-19.91q1.58-9.84,3.69-19.57,1.07-5.13,2.82-12t4.32-14.25a140,140,0,0,1,6-14.52,70.19,70.19,0,0,1,7.84-12.83,38.78,38.78,0,0,1,10-9.21,23,23,0,0,1,12.5-3.54,21.93,21.93,0,0,1,11.62,3,30.71,30.71,0,0,1,8.63,8,47.94,47.94,0,0,1,6.16,11.24,112.77,112.77,0,0,1,4.14,12.75c1.12,4.31,2.05,8.53,2.82,12.66s1.43,7.79,2,11q2.29,11.52,3.88,23.28A178.12,178.12,0,0,1,1002.71,926Zm-34-43q0-2.13-.27-7a78.64,78.64,0,0,0-1.14-9.73,33.61,33.61,0,0,0-2.73-8.68c-1.23-2.54-2.91-3.8-5-3.8-1.18,0-2.29.79-3.35,2.38a26.67,26.67,0,0,0-2.81,6,72.6,72.6,0,0,0-2.2,8.06q-1,4.43-1.68,8.5t-1,7.35c-.24,2.18-.42,3.74-.53,4.69q10.56-.88,20.78-2.66Z"/><path class="cls-37" d="M1100.09,859a43.08,43.08,0,0,1-5.63,22,60.87,60.87,0,0,1-15,17.17q2.8,4.26,5.81,9.92a107.44,107.44,0,0,1,5.37,11.95,104.11,104.11,0,0,1,3.87,12.57,50.17,50.17,0,0,1,1.5,11.59,19.28,19.28,0,0,1-2.73,10.18q-2.73,4.51-9.24,4.52-5.46,0-9.43-5.31a59.54,59.54,0,0,1-7-12.66q-3.07-7.35-5.63-15a99.89,99.89,0,0,0-4.85-12.22q-3.16,1.07-6.16,2.39t-6.16,2.57q-.18,3.9-.62,10.71a87.63,87.63,0,0,1-1.94,13.54,38.35,38.35,0,0,1-4.49,11.69q-3,4.95-8.27,5a10.16,10.16,0,0,1-9-4.78,31.51,31.51,0,0,1-4.49-11.33,78.07,78.07,0,0,1-1.5-13.37q-.18-6.81-.18-10.71,0-8.32.36-16.38t.35-16.38q0-7.6-.27-15.22t-.26-15.4V851.5c0-1.83.09-3.72.26-5.66s.38-3.81.62-5.58a12,12,0,0,1,1.23-4.25c1.17-2.48,3.85-4.84,8-7.08a92.07,92.07,0,0,1,13.74-5.93,123.43,123.43,0,0,1,14.62-4.07,57.36,57.36,0,0,1,10.65-1.51,35.5,35.5,0,0,1,15.85,3.37,32.86,32.86,0,0,1,11.44,9.11,39.82,39.82,0,0,1,6.87,13.28A54.05,54.05,0,0,1,1100.09,859Zm-32.58,2.48c0-3.07-.7-5.41-2.11-7s-3.7-2.39-6.87-2.39a22,22,0,0,0-7.13,1.24,45.63,45.63,0,0,0-6.6,2.83q.69,14,.53,27.8a57.43,57.43,0,0,0,7.57-3.19A33.94,33.94,0,0,0,1060,876a26.15,26.15,0,0,0,5.37-6.37A15.55,15.55,0,0,0,1067.51,861.51Z"/><path class="cls-37" d="M1182.5,831.23a11.51,11.51,0,0,1-3.43,8.06,35.12,35.12,0,0,1-8.28,6.37,59.38,59.38,0,0,1-10,4.51,71.23,71.23,0,0,1-8.45,2.48q-1.41,13.64-2.2,27.18t-.8,27.18q0,7.26.36,14.34t.35,14.16a44.08,44.08,0,0,1-.62,7,28.73,28.73,0,0,1-2.11,7.17,16.1,16.1,0,0,1-4.14,5.67,9.58,9.58,0,0,1-6.51,2.3,10.23,10.23,0,0,1-7.31-2.57,17.42,17.42,0,0,1-4.23-6.28,31.57,31.57,0,0,1-2-7.88,58.77,58.77,0,0,1-.53-7.53q-.36-10.62-.53-21.33t-.18-21.51q0-9,.09-17.7t.09-17.71c-1.64.24-3.32.42-5,.53s-3.43.18-5.19.18a46.41,46.41,0,0,1-5.55-.44,30.89,30.89,0,0,1-6.6-1.6,16.46,16.46,0,0,1-5.46-3.18,6.67,6.67,0,0,1-2.29-5.23,12.51,12.51,0,0,1,4.14-9.29,37.38,37.38,0,0,1,10.56-6.91,88.89,88.89,0,0,1,14.27-5,150.67,150.67,0,0,1,15.49-3.19q7.66-1.15,14.09-1.68t10-.53c2.23,0,4.6.09,7.13.26a25.56,25.56,0,0,1,7.13,1.51,13.58,13.58,0,0,1,5.55,3.72A10.06,10.06,0,0,1,1182.5,831.23Z"/></g><g id="Layer_13" data-name="Layer 13"><ellipse class="cls-49" cx="1812.13" cy="1004.84" rx="57.37" ry="57.68"/></g><g id="Layer_11" data-name="Layer 11"><ellipse class="cls-14" cx="1409.52" cy="602.23" rx="1.18" ry="1.18"/><ellipse class="cls-3" cx="1813.38" cy="1004.71" rx="40.08" ry="40.3"/><path class="cls-3" d="M1794.39,969.53l-.64-11.11s11-3.62,13-3.62l4.75,10.25Z"/><path class="cls-3" d="M1777.8,987.13l-7-8.65s6.84-9.35,8.49-10.54l9.83,5.57Z"/><path class="cls-3" d="M1773.85,1011.76l-10.7-3s.21-11.58.88-13.5l11.24-1.11Z"/><path class="cls-3" d="M1785.47,1032.52l-10.42,3.91s-6.72-9.43-7.32-11.37l8.38-7.58Z"/><path class="cls-3" d="M1807.32,1043.38l-6.19,9.25s-11-3.75-12.58-5l2.4-11Z"/><path class="cls-3" d="M1832,1039.73l.27,11.18s-11.13,3.25-13.16,3.18l-4.39-10.46Z"/><path class="cls-3" d="M1848.57,1021.21l7.28,8.46s-6.52,9.63-8.13,10.87l-10-5.26Z"/><path class="cls-3" d="M1851,997l10.82,2.62s.27,11.64-.32,13.6l-11.19,1.58Z"/><path class="cls-3" d="M1839.72,974.59l10.54-4.2s7,9.54,7.67,11.52l-8.4,7.91Z"/><path class="cls-3" d="M1818.28,966.07l5.56-9.69s11.18,3,12.88,4.17l-1.67,11.23Z"/></g><g id="Layer_12" data-name="Layer 12"><ellipse class="cls-49" cx="1812.67" cy="1004.21" rx="21.74" ry="21.86"/></g><g id="Layer_18" data-name="Layer 18"><path class="cls-50" d="M741.92,138.62c20.3,58.46,36.32,58.24,33.49,80.14-3.62,28.07-33.8,58.58-72.16,60.21-40.81,1.74-73.87-29.93-78.55-59-2.73-17,7-15.38,32.3-79.74,8.55-21.8,12.44-34.77,25.91-41.47,11.31-5.62,26.15-5.23,37.08,1.2C732.66,107.4,735.55,120.28,741.92,138.62Z"/><ellipse class="cls-51" cx="700.81" cy="200.39" rx="38.28" ry="49.11" transform="translate(-16.09 68.71) rotate(-5.55)"/><circle class="cls-5" cx="720.53" cy="161.27" r="23.04"/><circle cx="716.78" cy="165.2" r="10.37"/><circle class="cls-5" cx="679.47" cy="164.16" r="23.04"/><circle cx="683.22" cy="168.09" r="10.37"/><path d="M715.84,135.24s-21.11,4.84-14.34,10S705.77,143.64,715.84,135.24Z"/><path d="M681.81,138.24s21.11,4.84,14.35,10S691.88,146.64,681.81,138.24Z"/><path d="M739.6,212.78c-.19,4.13-3.28,9.93-6.75,10.27-1.34.13-2.16-.62-5.21-2.69-6.06-4.11-9.09-6.16-10.79-6.09-5.62.22-6.25,11.86-11.81,12.7-6.45,1-11-13.91-17.28-13-6,.88-6.62,15.44-11.16,15.55-3.22.07-7.33-7.14-7.18-14,.29-13,16.13-26.23,32.3-27.51,9.18-.72,18.39,2.42,25.43,7.09a41.28,41.28,0,0,1,3.59,2.67C736.33,202.47,739.82,208,739.6,212.78Z"/><path class="cls-5" d="M732.65,199.58l-7.8,7.88-5.58-15.75-5.59,15.75-3.59-18.74-2,20.28-7.19-20.59-3.32,21.44-6.4-18.94L688.37,209,681,197.49l.89,12.36-8.67-5.38A40.36,40.36,0,0,1,684,194.29a39.4,39.4,0,0,1,24.83-6.16,39.77,39.77,0,0,1,23.81,11.45Z"/><path class="cls-50" d="M1270,147.2c20.3,58.46,36.32,58.24,33.5,80.15-3.63,28.06-33.81,58.57-72.17,60.2-40.81,1.74-73.87-29.93-78.55-59-2.73-17,7.06-15.37,32.3-79.74,8.55-21.8,12.44-34.77,25.92-41.47,11.3-5.62,26.14-5.23,37.08,1.2C1260.7,116,1263.6,128.86,1270,147.2Z"/><ellipse class="cls-51" cx="1228.85" cy="208.97" rx="38.28" ry="49.11" transform="translate(-14.45 119.8) rotate(-5.55)"/><circle class="cls-5" cx="1248.57" cy="169.85" r="23.04"/><circle cx="1244.82" cy="173.78" r="10.37"/><circle class="cls-5" cx="1207.51" cy="172.75" r="23.04"/><circle cx="1211.26" cy="176.67" r="10.37"/><path d="M1243.88,143.82s-21.11,4.84-14.34,10S1233.81,152.22,1243.88,143.82Z"/><path d="M1209.86,146.82s21.1,4.84,14.34,10S1219.92,155.22,1209.86,146.82Z"/><path d="M1267.64,221.36c-.19,4.13-3.28,9.93-6.75,10.27-1.34.13-2.16-.62-5.21-2.69-6.06-4.11-9.09-6.16-10.79-6.09-5.62.22-6.24,11.86-11.81,12.7-6.45,1-11-13.91-17.27-13-6,.88-6.63,15.45-11.17,15.55-3.22.07-7.32-7.14-7.17-14,.28-13,16.12-26.24,32.29-27.52,9.19-.72,18.4,2.42,25.43,7.09a38.45,38.45,0,0,1,3.59,2.67C1264.37,211.05,1267.86,216.61,1267.64,221.36Z"/><path class="cls-5" d="M1260.69,208.16l-7.8,7.88-5.58-15.75L1241.73,216l-3.59-18.74-2,20.29L1228.92,197l-3.32,21.43-6.4-18.93-2.79,18.09L1209,206.07l.9,12.36-8.67-5.38a40.29,40.29,0,0,1,10.79-10.18,39.4,39.4,0,0,1,24.83-6.16,39.93,39.93,0,0,1,23.81,11.45Z"/></g><g id="Layer_20" data-name="Layer 20"><path class="cls-52" d="M723.22,714.1a14.4,14.4,0,0,1-4.32,10.44c-4.29,4.16-9.9,4.08-15,4s-12.33-.18-16.44-5.48a14.34,14.34,0,0,1-2.77-8.83A15,15,0,0,1,688.8,704c3.93-3.84,9.12-3.8,15.53-3.74,5.18,0,8.67.08,12.25,2.52C717.52,703.39,723,707.27,723.22,714.1Z"/><ellipse class="cls-53" cx="705.31" cy="701.96" rx="4.36" ry="5.76" transform="translate(-58.71 64.4) rotate(-5.02)"/><ellipse class="cls-53" cx="698.86" cy="703.84" rx="4.18" ry="5.27" transform="translate(-58.9 63.85) rotate(-5.02)"/><ellipse cx="704.86" cy="701.01" rx="1.29" ry="2.06" transform="translate(-74.27 83.6) rotate(-6.45)"/><ellipse cx="698.61" cy="702.15" rx="1.29" ry="2.06" transform="translate(-74.44 82.9) rotate(-6.45)"/><path class="cls-54" d="M701.61,700.32a1,1,0,0,1-.26-.35c-.45-1.11,1.18-3.45,3.18-3.79,2.54-.43,4.85,2.49,4.54,3.09-.19.36-1.22-.42-3.14-.11C703.76,699.5,702.4,700.93,701.61,700.32Z"/><path class="cls-54" d="M694.81,702.26c-.42-.4.63-3.25,2.91-3.83a3.8,3.8,0,0,1,2.9.53c.93.66,1.81,2,1.44,2.58-.52.82-2.85-.77-5.87.3C695.38,702.12,695,702.44,694.81,702.26Z"/><path d="M694.11,695.46l-.38,1.21,5.75,2.41s.53-.87.44-1S694.11,695.46,694.11,695.46Z"/><path d="M705.81,692.85l1.31.72-2.61,2.66s-2.71,1.55-2.66,1.26S705.81,692.85,705.81,692.85Z"/><path class="cls-55" d="M706.44,712.14c-.16.1-.37-.07-.82-.2a5.72,5.72,0,0,0-1.21-.14,12.46,12.46,0,0,0-6.29,1.88,18,18,0,0,0-4.92,4.11l-1.26-2.66,2.74,1.2-1.48-2.89,3,1.58-.91-3.38s2.8,2,2.8,2l-.77-3,2.58,2-.35-2.9,2.27,2.17a19.23,19.23,0,0,0,.51-3.33c-.17-.2,1.86,3,1.86,3l1.59-3.47c.31,1.2.53,2.18.68,2.9C706.56,711.42,706.68,712,706.44,712.14Z"/><path class="cls-31" d="M706.44,712.14s4.16,1.54,5.32,8.12"/><path class="cls-31" d="M700.74,717.79c.14,0,4.11-2.22,5.46.63"/><line class="cls-56" x1="711.76" y1="701.96" x2="713.42" y2="699.86"/><line class="cls-56" x1="718.87" y1="706.57" x2="722.25" y2="704.86"/><line class="cls-56" x1="709.6" y1="710.09" x2="710.8" y2="708.58"/><line class="cls-56" x1="716.42" y1="709.51" x2="718.57" y2="709.04"/><line class="cls-56" x1="713.8" y1="707.78" x2="715.84" y2="706.04"/><line class="cls-56" x1="715.65" y1="702.43" x2="717.31" y2="700.32"/><line class="cls-56" x1="714.31" y1="719.14" x2="716.42" y2="719.27"/><line class="cls-56" x1="718.57" y1="715.3" x2="721.23" y2="715.62"/><line class="cls-56" x1="720.56" y1="710.3" x2="723.21" y2="709.88"/><line class="cls-56" x1="709.6" y1="705.71" x2="711.26" y2="704.43"/><line class="cls-56" x1="711.48" y1="714.79" x2="713.7" y2="713.28"/><line class="cls-56" x1="705.63" y1="721.49" x2="705.82" y2="723.23"/><line class="cls-56" x1="711.51" y1="722.48" x2="712.18" y2="724.17"/><line class="cls-56" x1="715.53" y1="723.91" x2="718.11" y2="726.91"/><line class="cls-56" x1="719.23" y1="721.17" x2="721.89" y2="721.45"/><line class="cls-56" x1="697.47" y1="728.12" x2="698.6" y2="725.69"/><line class="cls-56" x1="701.28" y1="725.83" x2="701.67" y2="724.6"/><line class="cls-56" x1="700.33" y1="722.22" x2="701.14" y2="720.94"/><line class="cls-56" x1="703.92" y1="730.9" x2="704.45" y2="728.28"/><line class="cls-56" x1="712.59" y1="727.93" x2="713.42" y2="729.59"/><line class="cls-56" x1="690.41" y1="708.1" x2="692.62" y2="708.59"/><line class="cls-56" x1="688.29" y1="717.03" x2="689.98" y2="716.61"/><line class="cls-56" x1="686.86" y1="723.93" x2="689.14" y2="722.52"/><line class="cls-56" x1="692.69" y1="721.31" x2="694.23" y2="720.13"/><line class="cls-56" x1="692.33" y1="727.54" x2="693.21" y2="725"/><line class="cls-56" x1="696.55" y1="722.48" x2="697.47" y2="721.31"/><line class="cls-56" x1="683.73" y1="709.13" x2="685.95" y2="710.63"/><line class="cls-56" x1="686.97" y1="704.21" x2="689.03" y2="705.93"/><line class="cls-56" x1="691.1" y1="700.91" x2="692.77" y2="703.01"/><line class="cls-56" x1="687.28" y1="712.63" x2="689.87" y2="713.33"/><line class="cls-56" x1="682.39" y1="716.85" x2="685.06" y2="717.09"/></g></svg>
