<?xml version="1.0" standalone="no"?>
<!DOCTYPE svg PUBLIC "-//W3C//DTD SVG 20010904//EN"
 "http://www.w3.org/TR/2001/REC-SVG-20010904/DTD/svg10.dtd">
<svg version="1.0" xmlns="http://www.w3.org/2000/svg"
 width="70.000000pt" height="70.000000pt" viewBox="0 0 70.000000 70.000000"
 preserveAspectRatio="xMidYMid meet">
<metadata>
Created by potrace 1.11, written by Peter Selinger 2001-2013
</metadata>
<g transform="translate(0.000000,70.000000) scale(0.100000,-0.100000)"
fill="#000000" stroke="none">
<path d="M0 350 l0 -350 350 0 350 0 0 350 0 350 -350 0 -350 0 0 -350z m570
5 l0 -215 -220 0 -220 0 0 215 0 215 220 0 220 0 0 -215z"/>
<path d="M190 522 c-6 -2 -10 -53 -10 -123 l0 -119 170 0 170 0 0 120 0 119
-160 3 c-88 2 -165 2 -170 0z m105 -52 c10 -32 -5 -51 -39 -48 -24 2 -32 8
-34 27 -7 45 59 64 73 21z m169 -71 c14 -33 26 -65 26 -70 0 -5 -58 -9 -135
-9 l-136 0 16 30 c10 20 20 27 31 23 10 -4 24 4 39 23 l23 29 22 -20 22 -20
24 30 c13 17 24 33 24 38 0 24 21 -1 44 -54z"/>
</g>
</svg>
